<?xml version="1.0" standalone="no"?>
<!DOCTYPE svg PUBLIC "-//W3C//DTD SVG 20010904//EN"
 "http://www.w3.org/TR/2001/REC-SVG-20010904/DTD/svg10.dtd">
<svg version="1.0" xmlns="http://www.w3.org/2000/svg"
 width="720.000000pt" height="720.000000pt" viewBox="0 0 720.000000 720.000000"
 preserveAspectRatio="xMidYMid meet">
<metadata>
Created by potrace 1.11, written by Peter Selinger 2001-2013
</metadata>
<g transform="translate(0.000000,720.000000) scale(0.100000,-0.100000)"
fill="#000000" stroke="none">
<path d="M6699 5526 c-4 -3 -49 -10 -164 -22 -98 -11 -520 -136 -650 -194 -11
-5 -150 -57 -310 -116 -159 -58 -492 -182 -740 -274 -608 -226 -869 -309
-1305 -414 -274 -65 -265 -64 -445 -95 -128 -23 -157 -27 -245 -36 -36 -4 -76
-8 -89 -11 -13 -2 -65 -6 -115 -9 l-91 -6 -295 101 c-162 56 -320 110 -350
120 -30 10 -120 42 -200 70 -632 229 -1006 331 -1225 334 -144 1 -209 -9 -270
-45 -71 -41 -78 -48 -118 -111 -34 -53 -37 -63 -38 -140 -3 -119 8 -199 43
-318 45 -155 179 -422 294 -587 26 -37 58 -82 70 -100 29 -44 150 -195 260
-328 155 -187 380 -390 634 -576 249 -182 582 -357 795 -418 44 -13 100 -31
125 -41 25 -10 64 -21 87 -24 24 -3 70 -12 103 -21 81 -21 360 -22 451 -2 193
43 294 162 325 382 13 92 14 115 6 115 -5 0 -9 -12 -9 -27 0 -16 -3 -41 -6
-58 -4 -16 -9 -48 -12 -70 -12 -80 -54 -170 -104 -223 -49 -52 -141 -102 -187
-102 -12 0 -35 -5 -51 -11 -27 -10 -304 -14 -348 -5 -11 2 -67 14 -124 26 -57
11 -111 25 -120 29 -9 5 -63 23 -121 40 -156 47 -305 114 -495 224 -206 120
-300 184 -485 332 -177 142 -404 369 -539 540 -57 72 -110 139 -120 150 -49
59 -171 242 -228 343 -91 161 -157 304 -193 424 -27 89 -32 122 -36 241 l-5
138 37 59 c52 85 120 127 233 145 185 30 369 -2 826 -142 99 -31 292 -96 428
-144 136 -49 361 -128 500 -175 139 -47 295 -101 347 -119 95 -33 95 -33 48
-34 -48 -1 -314 85 -593 191 -216 82 -250 94 -510 174 -410 126 -435 133 -570
159 -188 36 -295 41 -397 19 -202 -44 -266 -137 -259 -378 2 -96 16 -144 98
-341 84 -202 201 -398 341 -575 24 -30 49 -62 55 -70 152 -194 386 -433 522
-536 28 -21 84 -66 125 -100 84 -69 183 -136 315 -215 356 -213 754 -339 1072
-339 140 0 210 13 299 55 66 32 154 104 154 127 0 5 9 21 20 35 16 20 47 101
55 143 13 67 18 80 30 80 8 0 15 9 15 20 0 11 -5 20 -11 20 -5 0 -8 -4 -4 -9
3 -5 1 -12 -4 -15 -13 -8 -7 24 6 32 16 11 25 72 10 72 -7 0 -8 3 -2 8 6 4 11
34 12 67 0 33 3 71 7 85 3 14 11 52 18 85 16 75 29 97 38 69 4 -10 4 -32 -1
-49 -17 -71 -19 -85 -9 -85 5 0 10 12 11 28 0 15 4 36 8 47 10 25 22 -45 27
-160 4 -97 5 -105 15 -105 6 0 5 38 -5 108 -5 32 11 27 17 -5 19 -99 71 -228
87 -218 6 3 7 -1 4 -10 -14 -35 87 -139 181 -187 52 -27 177 -56 265 -61 51
-3 77 -2 65 3 -15 6 -16 9 -4 9 9 1 19 -2 23 -6 16 -17 191 9 365 53 148 38
154 41 145 56 -5 7 -2 8 5 3 17 -10 213 74 204 88 -3 6 -1 7 6 3 12 -8 165 70
300 152 92 56 352 262 345 274 -3 5 -2 7 3 6 10 -3 63 36 63 47 0 3 -5 3 -12
-1 -7 -4 -8 -3 -4 5 4 6 12 9 17 6 10 -7 71 53 209 204 52 57 100 109 105 115
37 39 84 110 78 119 -3 5 -1 7 4 4 14 -9 46 40 37 56 -4 7 -4 9 1 5 4 -4 14
-3 22 3 16 14 18 33 1 23 -7 -4 -8 -3 -4 5 4 6 11 9 16 6 4 -3 15 6 24 20 20
30 20 32 1 32 -19 0 -97 -115 -88 -130 3 -5 1 -7 -4 -4 -6 4 -29 -19 -52 -51
-52 -72 -99 -127 -105 -121 -2 2 33 50 77 106 143 178 263 394 321 576 52 164
51 277 -3 364 -97 156 -306 173 -747 63 -109 -27 -230 -58 -268 -69 -108 -32
-88 -18 26 19 105 33 446 113 528 124 281 37 422 2 497 -123 19 -33 26 -60 30
-129 5 -75 2 -101 -22 -187 -15 -55 -33 -112 -41 -127 -17 -33 -18 -52 -2 -42
7 5 8 3 4 -5 -5 -7 -10 -10 -13 -7 -9 9 -73 -126 -66 -137 3 -6 1 -7 -4 -4
-13 8 -26 -20 -16 -35 3 -6 1 -8 -4 -5 -6 4 -20 -9 -32 -29 -25 -42 -25 -41
-6 -41 20 0 89 122 79 138 -4 7 -3 9 4 5 6 -4 27 28 53 81 112 234 135 398 76
535 -21 51 -93 116 -141 129 -74 20 -135 26 -147 15 -9 -8 -10 -7 -4 3 7 11
-12 13 -111 8 -65 -3 -155 -13 -199 -22 -44 -9 -87 -18 -95 -20 -62 -13 -465
-131 -545 -160 -55 -20 -174 -63 -265 -95 -300 -105 -611 -220 -754 -276 -299
-119 -312 -123 -363 -103 -27 11 -27 11 42 36 39 13 124 45 190 70 66 24 176
64 245 88 69 23 172 61 230 83 58 22 213 77 345 121 132 45 292 102 355 125
118 45 516 166 605 185 163 34 272 46 415 46 85 0 115 -5 160 -23 120 -49 169
-130 168 -283 -1 -268 -202 -659 -541 -1054 -104 -121 -369 -378 -442 -430
-38 -27 -107 -77 -153 -112 -45 -34 -99 -72 -120 -83 -20 -12 -66 -39 -102
-60 -60 -36 -168 -91 -360 -183 -142 -68 -367 -123 -586 -144 -79 -7 -208 11
-311 44 -68 21 -93 36 -143 81 -76 68 -125 163 -145 281 -4 23 -11 41 -17 41
-6 0 -7 -8 -3 -17 4 -10 9 -28 10 -40 5 -36 36 -124 61 -175 38 -75 129 -148
226 -180 100 -34 229 -52 322 -45 136 10 332 47 431 80 231 79 575 261 760
401 44 34 105 79 137 101 121 85 383 351 533 540 22 28 43 52 46 55 3 3 38 51
78 108 115 164 236 381 272 492 66 203 76 319 39 439 -18 58 -27 72 -69 104
-27 21 -77 47 -112 58 -57 19 -79 21 -199 16 -160 -7 -344 -37 -495 -82 -322
-96 -417 -126 -490 -156 -44 -17 -177 -65 -295 -104 -118 -40 -300 -104 -405
-143 -104 -38 -215 -77 -245 -87 -30 -10 -98 -34 -150 -55 -52 -20 -151 -57
-219 -80 l-123 -43 -112 33 c-149 45 -149 45 -80 64 75 21 202 60 324 98 116
36 692 228 775 258 112 41 548 192 898 310 336 114 576 181 702 195 33 4 80
11 105 15 58 11 223 4 269 -11 122 -40 184 -104 216 -222 14 -53 16 -86 10
-149 -13 -150 -110 -432 -210 -609 -25 -45 -45 -83 -45 -86 0 -15 -303 -448
-355 -508 -159 -182 -384 -411 -500 -510 -38 -33 -72 -63 -75 -66 -13 -14
-253 -190 -318 -232 -75 -49 -270 -160 -332 -189 -156 -73 -198 -91 -319 -140
-86 -34 -264 -84 -331 -93 -25 -3 -87 -13 -137 -20 -117 -19 -194 -19 -306 -1
-96 16 -152 39 -220 91 -71 54 -116 184 -129 371 -1 19 -5 34 -9 34 -9 0 1
-125 14 -180 2 -8 7 -33 12 -55 16 -81 61 -151 122 -193 73 -49 126 -68 233
-83 78 -11 229 -8 290 4 14 3 61 11 105 17 316 44 817 274 1172 538 198 147
284 222 457 397 115 116 317 343 362 407 161 227 249 358 289 433 21 39 46 84
56 100 64 109 172 430 185 555 10 92 10 97 -11 175 -29 110 -80 169 -181 209
-79 32 -218 43 -321 27 -37 -5 -90 -13 -117 -16 -116 -14 -365 -84 -691 -194
-192 -65 -370 -126 -395 -136 -46 -18 -429 -150 -740 -256 -334 -114 -635
-210 -847 -270 l-103 -29 -292 96 c-161 53 -297 97 -303 98 -5 2 28 7 75 11
47 4 92 9 100 10 8 1 47 6 85 9 302 29 921 177 1400 335 173 57 796 283 925
336 34 14 279 105 350 131 19 7 109 40 200 74 91 35 201 76 245 93 44 16 148
49 230 73 83 24 170 51 195 58 25 8 68 18 95 21 28 3 93 13 146 20 97 14 116
13 227 -10 34 -7 62 -9 62 -6 0 14 -218 49 -231 37z m-5904 -672 c72 -13 195
-44 275 -68 529 -161 603 -185 800 -262 52 -20 189 -69 304 -109 115 -40 205
-74 200 -77 -5 -3 -52 -6 -105 -7 -91 -2 -103 1 -225 44 -510 183 -949 313
-1134 335 -108 13 -252 13 -320 0 -100 -19 -198 -108 -215 -195 -14 -72 -13
-179 3 -240 42 -168 159 -397 310 -610 108 -151 363 -429 477 -520 27 -22 59
-48 70 -59 41 -38 292 -223 340 -251 28 -16 86 -48 130 -71 44 -23 100 -53
125 -67 132 -75 580 -211 580 -177 0 6 -13 10 -29 10 -97 0 -462 126 -598 206
-40 24 -77 44 -81 44 -18 0 -199 115 -293 185 -354 268 -609 536 -801 845 -77
124 -158 272 -158 289 0 6 -8 30 -19 54 -71 163 -75 341 -8 435 62 86 155 122
315 122 203 -1 427 -53 942 -222 167 -55 422 -146 430 -155 3 -3 -13 -3 -35 1
-22 3 -75 8 -117 11 -58 4 -133 23 -295 75 -120 39 -231 75 -248 80 -84 26
-278 71 -335 78 -36 4 -132 7 -215 6 -142 0 -153 -2 -200 -26 -88 -46 -134
-131 -136 -246 -1 -74 4 -102 33 -182 72 -202 208 -431 357 -600 249 -283 435
-441 727 -618 181 -110 347 -181 547 -234 134 -35 162 -39 285 -41 168 -2 245
11 342 58 71 35 170 121 170 148 0 6 8 20 18 31 23 27 44 76 32 76 -5 0 -12
-10 -15 -21 -12 -36 -87 -139 -123 -169 -90 -74 -228 -116 -382 -114 -136 0
-183 7 -325 44 -170 45 -358 121 -485 198 -52 31 -99 59 -105 62 -21 11 -105
68 -220 151 -185 134 -485 446 -600 624 -57 89 -65 106 -40 85 20 -17 19 -8
-6 34 -12 20 -19 36 -16 36 5 0 21 -25 81 -119 6 -10 5 -12 -4 -6 -8 5 -11 3
-8 -6 3 -8 10 -13 16 -12 5 1 16 -5 24 -15 12 -15 11 -16 -4 -3 -36 28 -16 -7
63 -109 95 -122 149 -181 161 -174 4 3 5 -3 1 -12 -5 -13 -2 -16 9 -11 10 3
26 -6 44 -26 l29 -32 -27 24 c-16 14 -28 20 -28 14 0 -6 17 -25 38 -42 20 -18
62 -57 94 -87 53 -51 78 -68 62 -42 -4 7 -3 8 5 4 6 -4 9 -11 6 -16 -10 -16
212 -183 233 -175 7 3 11 1 8 -4 -13 -20 266 -176 444 -249 148 -60 245 -86
337 -87 22 0 39 -3 37 -6 -6 -10 49 -16 157 -18 127 -3 268 33 336 85 17 13
35 24 39 24 11 0 54 42 54 53 0 5 -16 -5 -35 -22 -20 -17 -39 -31 -43 -31 -4
1 10 16 32 35 21 19 42 32 47 30 11 -8 50 50 86 130 30 64 46 72 23 11 -5 -14
-6 -26 -2 -26 16 0 32 62 21 83 -8 14 -8 18 0 13 6 -4 11 0 11 9 0 26 52 165
61 165 10 0 11 -15 13 -150 1 -52 -2 -105 -6 -117 -4 -14 -3 -23 2 -23 13 0
13 2 15 145 1 66 -2 132 -7 147 -7 20 -6 33 5 48 14 20 15 18 36 -34 13 -30
24 -65 26 -78 12 -92 16 -112 21 -117 14 -14 -11 130 -33 193 -24 66 -24 71
-9 103 9 19 21 33 28 31 6 -2 26 -33 45 -69 33 -64 34 -65 18 -108 -8 -24 -13
-46 -11 -48 4 -4 -14 -65 -31 -103 -3 -8 -8 -33 -9 -55 -8 -129 -13 -164 -38
-280 -28 -135 -86 -233 -170 -290 -189 -128 -569 -110 -981 46 -130 49 -329
142 -395 184 -19 12 -83 52 -141 89 -95 59 -135 88 -269 196 -19 15 -58 46
-86 68 -102 80 -344 325 -440 445 -53 67 -114 142 -134 167 -115 141 -265 402
-337 585 -65 163 -81 226 -82 315 -4 221 55 306 244 352 89 21 211 16 390 -18z
m4948 -151 c-7 -2 -19 -2 -25 0 -7 3 -2 5 12 5 14 0 19 -2 13 -5z m75 0 c-10
-2 -28 -2 -40 0 -13 2 -5 4 17 4 22 1 32 -1 23 -4z m-128 -7 c0 -2 -18 -6 -40
-8 -22 -2 -40 0 -40 4 0 5 18 8 40 8 22 0 40 -2 40 -4z m253 -3 c-7 -2 -19 -2
-25 0 -7 3 -2 5 12 5 14 0 19 -2 13 -5z m74 -16 c55 -21 105 -69 131 -127 32
-71 36 -202 8 -298 -10 -34 -21 -61 -23 -58 -3 2 2 28 11 58 31 110 25 233
-18 308 -25 44 -94 102 -141 118 -16 6 -23 10 -15 10 8 0 29 -5 47 -11z m-474
-4 c-7 -2 -19 -2 -25 0 -7 3 -2 5 12 5 14 0 19 -2 13 -5z m-46 -9 c-3 -3 -12
-4 -19 -1 -8 3 -5 6 6 6 11 1 17 -2 13 -5z m-40 -10 c-3 -3 -12 -4 -19 -1 -8
3 -5 6 6 6 11 1 17 -2 13 -5z m326 -11 c-7 -2 -21 -2 -30 0 -10 3 -4 5 12 5
17 0 24 -2 18 -5z m152 -20 c59 -17 108 -61 140 -124 34 -66 30 -209 -10 -329
-49 -150 -175 -385 -279 -517 -99 -127 -233 -278 -246 -278 -8 -1 -14 -7 -12
-14 1 -7 -1 -10 -6 -7 -12 7 -64 -48 -55 -58 5 -4 4 -7 -2 -6 -20 4 -35 0 -35
-11 0 -5 6 -7 13 -3 6 4 -1 -7 -17 -24 -17 -18 -32 -32 -35 -32 -2 0 6 11 19
25 13 14 19 25 13 25 -13 0 -55 -45 -48 -52 3 -3 -17 -26 -45 -51 -72 -65
-190 -155 -161 -124 14 15 22 27 19 27 -4 0 -46 -30 -95 -66 -48 -36 -107 -77
-131 -91 -23 -14 -40 -29 -37 -33 3 -5 0 -12 -6 -16 -8 -4 -9 -3 -5 4 12 19
-1 15 -97 -36 -51 -27 -108 -54 -127 -62 -19 -7 -64 -27 -99 -42 -119 -54
-252 -91 -411 -115 -93 -14 -308 -8 -369 11 -100 30 -214 106 -258 172 -23 35
-10 40 18 7 74 -87 207 -156 336 -174 68 -10 295 -5 314 6 3 2 41 11 85 20 86
18 254 74 374 125 88 37 84 35 197 99 123 70 167 102 153 111 -8 5 -5 12 11
24 33 23 49 20 19 -4 -30 -24 -19 -26 16 -3 15 9 21 19 15 23 -7 3 17 29 55
59 36 29 68 50 71 47 4 -3 4 -7 2 -9 -2 -2 -21 -16 -42 -32 -21 -15 -35 -30
-33 -33 3 -3 26 12 52 33 29 24 42 40 34 45 -7 4 6 21 35 46 58 49 80 57 41
15 -17 -17 -25 -31 -20 -31 6 0 23 14 39 30 18 19 23 30 15 30 -8 0 47 62 121
138 74 75 151 157 169 182 19 25 37 47 40 50 3 3 19 25 36 50 17 25 56 81 86
125 63 91 95 151 138 261 117 294 68 473 -141 517 -75 16 -229 22 -229 10 0
-4 40 -9 88 -9 166 -3 251 -36 303 -121 21 -34 24 -49 23 -138 -1 -86 -6 -114
-34 -195 -44 -128 -104 -243 -197 -376 -121 -171 -161 -219 -305 -360 -275
-271 -469 -405 -799 -554 -225 -101 -383 -140 -574 -140 -133 0 -216 15 -294
51 -75 34 -185 127 -206 173 -8 17 -19 38 -25 46 -6 8 -17 31 -26 50 -8 19
-22 48 -31 63 -13 25 -17 81 -11 154 2 24 18 0 78 -121 79 -160 135 -229 227
-282 86 -48 143 -63 287 -71 92 -5 108 -4 101 8 -7 11 -6 12 7 2 8 -7 17 -11
20 -8 5 5 16 7 113 20 116 16 328 91 465 165 47 25 102 54 122 65 20 10 34 23
31 28 -3 6 -1 7 6 3 16 -10 160 89 289 199 105 90 301 278 335 323 23 30 12
49 -15 25 -11 -10 0 12 26 48 25 36 53 72 63 80 10 8 3 -5 -15 -28 -19 -24
-30 -48 -26 -54 4 -7 3 -9 -4 -5 -14 9 -27 -13 -14 -26 6 -6 29 19 68 77 33
48 72 103 88 123 62 81 146 286 165 409 10 67 -2 136 -34 190 -22 38 -88 79
-156 97 -69 18 -272 19 -359 1 -95 -19 -367 -91 -452 -119 -318 -107 -437
-149 -531 -186 -95 -37 -106 -44 -95 -58 12 -13 11 -14 -7 -3 -18 11 -37 6
-145 -39 -197 -81 -200 -82 -193 -93 3 -6 1 -7 -5 -3 -6 4 -25 0 -42 -9 -21
-11 -39 -13 -61 -7 -29 7 -20 13 137 79 603 256 1147 439 1511 508 10 2 35 4
56 4 20 1 37 5 37 10 0 15 -86 3 -253 -36 -60 -14 -110 -23 -113 -21 -5 5 174
48 305 74 109 21 304 15 371 -11 117 -47 158 -116 158 -264 0 -102 -19 -177
-74 -300 -36 -78 -55 -110 -156 -264 -61 -93 -74 -122 -32 -72 18 22 23 24 19
10 -7 -20 -6 -20 9 -1 9 11 12 22 7 26 -5 3 -1 17 9 30 11 14 20 19 20 12 0
-7 5 -10 10 -7 6 3 10 11 10 16 0 6 -4 7 -10 4 -5 -3 -10 -4 -10 -1 0 12 114
196 118 191 3 -3 -18 -43 -47 -91 -29 -47 -51 -88 -48 -90 8 -8 92 133 136
226 89 191 113 319 86 462 -14 72 -118 155 -218 173 -20 4 -40 11 -43 16 -7
12 66 2 131 -18z m-328 11 c-3 -3 -12 -4 -19 -1 -8 3 -5 6 6 6 11 1 17 -2 13
-5z m241 -21 c214 -53 268 -217 167 -503 -32 -88 -66 -163 -72 -157 -2 3 5 27
17 54 75 164 94 338 48 439 -49 108 -126 145 -314 152 -135 4 -199 -4 -391
-50 -64 -15 -86 -17 -100 -8 -17 11 -16 11 2 5 11 -3 53 3 95 14 129 35 322
68 403 70 44 0 107 -6 145 -16z m-345 0 c-7 -2 -19 -2 -25 0 -7 3 -2 5 12 5
14 0 19 -2 13 -5z m-50 -10 c-7 -2 -19 -2 -25 0 -7 3 -2 5 12 5 14 0 19 -2 13
-5z m-4416 -33 c84 -9 185 -32 418 -94 28 -8 61 -19 75 -25 l25 -12 -25 6
c-14 3 -85 21 -157 40 -141 37 -152 39 -278 60 -103 17 -276 12 -333 -9 -92
-34 -166 -110 -178 -182 -3 -22 -7 -41 -9 -44 -6 -11 17 -139 35 -198 32 -98
81 -202 93 -195 6 3 7 1 3 -5 -4 -6 0 -28 9 -48 8 -20 13 -39 11 -41 -13 -13
-157 298 -176 380 -34 146 14 287 114 340 68 35 210 45 373 27z m-48 -24 c-2
-2 -35 -7 -74 -11 -123 -11 -232 -50 -243 -85 -4 -12 -1 -12 14 2 21 19 86 48
106 48 6 0 -11 -12 -40 -26 -29 -14 -50 -30 -47 -34 3 -5 0 -12 -6 -16 -8 -4
-9 -3 -5 4 4 7 2 12 -3 12 -6 0 -11 -2 -11 -4 0 -2 -3 -12 -7 -22 -5 -13 -3
-15 7 -9 9 5 11 4 6 -4 -4 -6 -11 -9 -16 -6 -5 3 -13 -3 -19 -12 -9 -16 -10
-16 -11 -2 0 9 7 22 15 29 8 7 15 17 15 23 0 6 -9 2 -20 -9 -14 -13 -21 -35
-23 -66 -1 -25 -5 -44 -9 -41 -7 4 -10 -18 -11 -83 0 -11 3 -38 6 -60 6 -35 5
-36 -5 -14 -6 14 -12 68 -12 121 -1 89 1 99 27 136 48 70 118 110 210 122 68
9 163 13 156 7z m48 -19 c0 -9 -11 -11 -36 -8 l-36 5 35 7 c19 3 35 7 36 8 0
0 1 -5 1 -12z m46 6 c-7 -2 -19 -2 -25 0 -7 3 -2 5 12 5 14 0 19 -2 13 -5z
m4078 0 c-11 -5 -11 -7 0 -15 10 -7 8 -8 -8 -3 -25 7 -75 -4 -68 -15 2 -4 -7
-5 -22 -2 -17 3 -24 1 -19 -6 4 -6 -2 -8 -16 -4 -13 3 -19 1 -15 -5 4 -7 0 -9
-10 -7 -10 3 -38 -2 -62 -11 -24 -8 -46 -13 -49 -11 -5 6 248 84 273 84 6 0 4
-2 -4 -5z m-4204 -9 c-3 -3 -12 -4 -19 -1 -8 3 -5 6 6 6 11 1 17 -2 13 -5z
m-70 -10 c-3 -3 -12 -4 -19 -1 -8 3 -5 6 6 6 11 1 17 -2 13 -5z m196 -1 c-7
-2 -19 -2 -25 0 -7 3 -2 5 12 5 14 0 19 -2 13 -5z m25 -27 c13 -3 58 -10 99
-16 93 -13 203 -39 353 -86 165 -51 368 -122 388 -135 21 -13 27 -15 -140 41
-194 66 -342 109 -467 137 -100 23 -140 27 -291 27 -165 1 -178 0 -220 -23
-55 -28 -74 -50 -107 -121 -22 -49 -25 -63 -19 -128 8 -96 55 -237 113 -337
151 -262 455 -586 690 -737 38 -24 98 -63 135 -87 94 -60 325 -166 438 -201
131 -40 213 -52 365 -53 108 -1 142 3 202 21 163 50 259 140 307 288 9 29 26
60 36 69 11 10 20 24 20 32 0 7 4 13 10 13 17 0 2 -137 -21 -182 -28 -55 -58
-98 -67 -95 -13 4 -90 -76 -85 -90 3 -7 0 -13 -7 -13 -6 0 -8 5 -5 10 10 16
-5 12 -32 -10 -15 -11 -65 -33 -112 -48 -78 -24 -100 -27 -236 -27 -132 0
-163 4 -255 28 -185 49 -209 59 -455 177 -167 81 -451 297 -620 471 -287 296
-475 630 -475 844 0 119 82 209 213 234 41 8 200 6 245 -3z m3827 4 c-3 -5
-14 -10 -23 -9 -14 0 -13 2 3 9 27 11 27 11 20 0z m170 -16 c-153 -54 -244
-76 -262 -64 -17 11 -17 11 1 6 14 -5 169 37 291 79 6 2 17 3 25 3 8 0 -16
-11 -55 -24z m352 -1 c-20 -2 -35 -8 -32 -13 7 -12 68 -1 77 14 5 7 8 7 8 1 0
-7 35 -10 93 -10 50 1 81 -1 68 -5 -20 -4 -16 -7 23 -18 53 -14 117 -67 140
-117 10 -19 18 -65 19 -105 1 -38 7 -70 12 -70 7 0 7 -3 0 -8 -14 -10 -61
-153 -57 -177 1 -15 0 -17 -7 -6 -7 11 -10 9 -16 -8 -3 -11 -3 -25 0 -31 4 -6
1 -9 -6 -8 -6 2 -14 -3 -17 -11 -3 -9 0 -11 7 -6 7 4 3 -11 -8 -34 -12 -22
-26 -40 -32 -38 -7 1 -14 -4 -17 -12 -3 -9 0 -11 9 -6 8 5 10 4 6 0 -4 -5 -13
-10 -21 -11 -7 -1 2 28 26 75 78 155 111 272 102 358 -8 76 -15 93 -63 140
-56 58 -129 83 -236 83 -47 0 -85 -4 -85 -8 0 -4 32 -6 72 -4 102 6 177 -19
238 -78 97 -94 87 -224 -36 -477 -25 -51 -42 -98 -38 -105 4 -7 3 -8 -4 -4 -6
4 -16 -4 -23 -16 -7 -13 -15 -25 -19 -28 -11 -8 -170 -220 -170 -226 0 -4 8 0
18 7 15 12 16 12 5 -2 -7 -9 -10 -18 -7 -21 3 -3 0 -9 -7 -14 -7 -4 -10 -3 -5
4 11 18 -11 23 -25 5 -8 -9 -13 -18 -11 -20 1 -1 -1 -3 -5 -4 -16 -1 -42 -32
-36 -42 3 -6 1 -7 -5 -3 -6 3 -51 -32 -103 -81 -50 -49 -104 -96 -119 -106
-18 -11 -27 -25 -25 -36 2 -10 -3 -18 -11 -18 -10 0 -11 4 -3 14 7 8 8 13 1
13 -15 0 -30 -23 -27 -42 2 -9 -4 -23 -13 -30 -13 -11 -14 -11 -7 1 6 11 4 13
-11 8 -14 -5 -12 -2 6 13 30 23 15 27 -18 4 -12 -8 -20 -19 -17 -24 3 -5 0
-12 -6 -16 -8 -5 -9 -3 -4 6 5 8 3 11 -6 8 -8 -3 -14 -9 -14 -14 0 -5 -4 -15
-8 -21 -12 -19 1 -16 36 8 l32 21 -27 -24 c-15 -13 -41 -31 -57 -41 -24 -14
-29 -15 -27 -2 1 8 6 18 11 22 4 4 5 2 0 -6 -5 -9 -3 -12 5 -9 13 4 24 38 13
38 -3 0 -21 -9 -39 -21 -34 -21 -46 -36 -21 -26 8 3 14 -1 14 -9 0 -7 -4 -11
-9 -8 -4 3 -23 -5 -41 -17 -21 -16 -27 -17 -18 -6 7 9 9 17 3 17 -11 0 -34
-25 -28 -31 2 -2 -6 -5 -18 -5 -13 -1 -90 -33 -172 -71 -82 -39 -174 -76 -204
-82 -149 -34 -190 -45 -190 -52 0 -4 30 1 67 12 38 10 79 19 93 18 14 0 -16
-11 -67 -24 -182 -46 -397 -41 -512 11 -75 34 -89 29 -16 -7 33 -16 54 -29 47
-29 -22 0 -113 50 -107 60 3 5 -5 16 -17 24 -33 23 -47 19 -18 -5 23 -20 23
-20 2 -8 -13 8 -23 19 -23 24 0 6 -19 30 -43 55 -58 62 -73 88 -85 154 -6 31
-13 61 -16 66 -3 5 -2 11 3 14 4 2 25 -39 47 -91 59 -145 144 -222 294 -267
57 -17 341 -24 341 -8 0 4 -61 6 -135 4 -114 -3 -145 0 -207 19 -86 25 -165
75 -212 133 -65 81 -60 92 12 24 128 -121 213 -150 433 -147 91 0 166 6 193
14 24 8 57 16 73 18 39 7 180 54 228 77 22 10 56 25 75 33 153 61 460 279 611
434 244 250 382 457 432 653 52 198 -16 320 -194 350 -71 12 -270 9 -334 -5
-171 -37 -372 -99 -710 -219 -107 -38 -144 -42 -48 -6 32 13 81 31 108 42 178
69 480 160 607 183 23 4 35 11 31 18 -3 6 -1 7 6 3 13 -9 123 3 117 13 -2 3
19 4 47 2 29 -1 48 1 44 5 -4 5 -25 8 -45 7 l-37 -1 35 8 35 7 -30 3 -30 2 30
8 c17 4 46 7 65 7 l35 0 -38 -4z m-97 -7 c0 -3 -4 -8 -10 -11 -5 -3 -10 -1
-10 4 0 6 5 11 10 11 6 0 10 -2 10 -4z m-530 -10 c0 -6 -93 -37 -97 -32 -2 2
15 11 39 19 47 17 58 19 58 13z m480 -6 l-25 -8 24 -1 c13 -1 22 -4 18 -7 -3
-3 -21 -3 -39 1 -29 7 -30 9 -13 16 11 4 29 7 40 7 16 0 15 -2 -5 -8z m473
-23 c66 -37 107 -131 96 -222 -4 -34 -7 -40 -8 -20 -6 78 -14 121 -26 146 -25
48 -68 91 -109 110 -23 11 -30 16 -16 13 14 -4 42 -16 63 -27z m-4502 -8 c59
-10 117 -23 130 -29 22 -9 21 -10 -6 -4 -92 19 -272 41 -352 43 -82 2 -99 -1
-167 -29 -82 -34 -107 -63 -126 -143 -18 -78 -17 -112 8 -202 23 -85 98 -253
108 -242 3 3 -11 37 -31 77 -92 183 -106 335 -41 438 54 84 212 108 456 69 69
-11 139 -20 157 -21 17 -1 29 -4 26 -8 -2 -5 5 -8 17 -8 12 0 30 -5 41 -11 12
-6 40 -11 64 -12 24 -1 39 -4 34 -8 -5 -3 23 -15 62 -28 39 -12 69 -24 67 -27
-2 -2 -33 6 -69 17 -35 11 -127 36 -204 55 -121 31 -161 36 -296 41 -130 5
-164 3 -205 -11 -55 -19 -99 -50 -90 -65 6 -10 -11 -26 -28 -26 -14 0 -36 -84
-37 -141 -1 -57 43 -200 92 -299 49 -97 213 -310 329 -425 168 -169 408 -343
580 -423 216 -99 242 -109 270 -102 16 4 20 3 12 -3 -13 -9 12 -18 103 -38 58
-13 228 -24 285 -19 101 10 210 43 266 80 46 31 164 163 164 184 0 5 7 14 15
21 8 7 15 19 15 28 0 17 -32 -21 -44 -52 -3 -10 -9 -16 -12 -13 -3 3 4 24 15
47 18 37 19 48 9 96 -6 30 -15 54 -20 54 -6 0 -7 -8 -3 -17 15 -36 12 -80 -8
-121 -22 -48 -31 -51 -18 -6 4 16 7 72 6 124 -2 76 0 89 8 63 5 -18 14 -33 18
-33 5 0 4 12 -2 27 -10 28 -5 73 9 73 10 0 32 -54 41 -101 5 -25 3 -45 -5 -60
-17 -31 -17 -49 -1 -27 11 14 13 8 15 -40 2 -70 -11 -103 -62 -165 -66 -79
-147 -134 -242 -162 -148 -46 -400 -30 -564 35 -25 10 -61 21 -80 25 -19 4
-76 29 -127 55 -50 26 -107 53 -125 61 -18 7 -37 15 -43 17 -5 3 -3 -3 5 -13
15 -18 14 -18 -12 -1 -31 20 -36 29 -13 20 29 -12 14 4 -33 35 -55 35 -80 41
-42 10 37 -31 6 -13 -100 57 -98 65 -151 108 -279 229 -105 99 -233 248 -220
256 6 4 -6 28 -32 62 -23 31 -45 54 -50 52 -4 -3 -11 0 -15 6 -4 8 -3 9 4 5 7
-4 12 -4 12 -1 0 13 -32 67 -37 62 -2 -3 1 -16 7 -29 19 -35 -2 -10 -43 53
-72 111 -127 272 -127 370 0 121 71 207 197 239 52 13 236 2 364 -21z m360 -4
c19 -8 29 -14 23 -15 -7 0 -27 7 -45 15 -19 8 -29 14 -23 15 7 0 27 -7 45 -15z
m3135 -24 c-20 -9 -34 -20 -30 -24 5 -5 1 -5 -8 -2 -9 4 -47 -4 -84 -16 -37
-13 -63 -24 -57 -26 6 -2 30 3 54 11 24 8 45 14 47 12 2 -2 -16 -11 -40 -19
-24 -9 -99 -36 -168 -61 -157 -57 -378 -144 -583 -231 -88 -36 -161 -64 -164
-61 -6 6 24 20 142 66 44 17 94 38 110 45 83 37 139 60 235 95 123 45 316 118
345 131 16 7 14 8 -10 6 -16 -2 -24 -2 -17 0 7 3 10 9 7 14 -3 5 0 7 7 4 7 -3
45 7 83 21 39 14 87 31 107 36 21 6 35 14 32 19 -3 5 3 6 12 2 14 -5 10 -10
-20 -22z m54 -1 c-8 -5 -19 -10 -25 -10 -5 0 -3 5 5 10 8 5 20 10 25 10 6 0 3
-5 -5 -10z m778 -16 c57 -16 125 -73 143 -121 27 -72 -3 -238 -66 -364 -70
-139 -260 -386 -394 -511 -74 -70 -223 -189 -313 -251 -120 -82 -372 -198
-533 -245 -64 -19 -85 -24 -165 -38 -14 -3 -67 -7 -118 -11 -82 -5 -106 -2
-198 22 -125 33 -202 79 -269 161 -72 89 -79 108 -76 208 1 38 1 39 21 21 11
-10 20 -23 20 -28 0 -10 38 -64 89 -128 29 -37 124 -110 171 -131 118 -54 268
-61 490 -22 61 10 175 52 172 63 -1 7 2 9 8 6 16 -10 121 35 113 48 -3 5 -1 7
5 3 15 -9 144 53 136 66 -4 7 -3 8 4 4 16 -10 54 12 46 26 -4 6 -3 8 4 4 12
-7 121 55 147 85 23 24 8 25 -19 0 -23 -20 -87 -61 -71 -44 24 24 138 105 121
85 -11 -12 -15 -22 -9 -22 13 0 55 45 47 52 -3 3 0 9 7 14 8 4 10 3 5 -4 -11
-17 9 -15 24 3 10 12 10 15 -1 15 -9 1 -8 4 4 11 9 6 15 15 11 20 -3 5 0 8 8
7 7 -2 12 2 11 9 -2 6 27 37 62 69 36 31 65 61 65 67 0 5 -10 2 -22 -9 -22
-19 29 51 65 91 11 11 39 48 64 83 25 35 49 59 56 55 6 -4 8 0 4 10 -4 10 -2
16 6 14 7 -1 11 6 11 16 -1 10 13 55 32 100 18 45 33 73 34 62 0 -11 -14 -49
-30 -83 -34 -72 -35 -76 -18 -66 7 5 2 -8 -10 -27 -12 -18 -26 -33 -31 -32 -5
1 -23 -20 -41 -47 -17 -26 -38 -54 -46 -60 -7 -7 -14 -17 -14 -23 0 -6 12 0
27 14 15 13 6 -1 -20 -33 -47 -56 -58 -75 -34 -62 7 4 9 3 4 -2 -5 -5 -12 -9
-16 -9 -11 0 -123 -102 -121 -110 1 -4 -11 -21 -27 -37 -55 -60 -4 -22 82 60
76 72 195 210 195 226 0 3 -10 3 -21 1 -12 -3 -18 -1 -15 3 4 4 17 7 29 7 15
0 22 6 21 18 -1 9 2 14 7 11 5 -3 22 16 39 42 32 51 38 70 18 58 -8 -4 -10 -3
-5 2 5 5 14 9 20 9 7 0 12 10 11 22 0 12 3 20 7 17 5 -3 18 14 29 37 27 52 51
129 40 129 -4 0 -13 -21 -19 -46 -17 -68 -22 -49 -6 21 27 115 -5 229 -74 264
-20 10 -56 25 -81 32 -70 19 -70 30 -1 13 78 -18 111 -35 137 -71 30 -41 36
-61 43 -138 6 -65 7 -67 12 -27 11 95 -39 197 -110 225 -88 36 -181 41 -346
22 -63 -8 -383 -90 -379 -97 3 -4 -1 -5 -9 -2 -7 2 -36 -5 -63 -17 -27 -11
-87 -34 -134 -49 -129 -43 -185 -68 -182 -80 1 -6 -2 -9 -7 -6 -12 8 -203 -68
-194 -78 4 -4 0 -4 -9 -1 -9 4 -56 -13 -111 -41 -90 -44 -97 -46 -127 -34
l-32 13 82 39 c46 21 122 54 170 72 48 19 105 43 126 54 42 21 330 127 522
191 128 44 337 93 477 115 104 15 207 12 283 -10z m-4947 -17 c-10 -9 -11 -8
-5 6 3 10 9 15 12 12 3 -3 0 -11 -7 -18z m293 -3 c-19 -15 -19 -16 1 -9 50 18
95 24 155 23 36 0 52 -3 35 -4 -139 -16 -233 -44 -220 -65 4 -5 3 -9 -2 -8
-23 4 -33 -5 -53 -48 -30 -64 -36 -234 -8 -217 6 4 8 -1 4 -13 -4 -11 -2 -33
4 -49 8 -21 8 -26 0 -18 -16 16 -39 120 -40 179 0 36 -3 46 -10 35 -6 -9 -10
-10 -10 -3 0 6 5 15 10 18 6 3 10 16 10 28 0 33 34 81 74 107 21 12 35 25 32
27 -3 3 -17 -2 -32 -11 -14 -10 -28 -15 -31 -13 -5 6 77 57 91 57 6 0 1 -7
-10 -16z m413 0 c-3 -3 -12 -4 -19 -1 -8 3 -5 6 6 6 11 1 17 -2 13 -5z m-164
-19 c74 -4 132 -13 229 -34 32 -7 63 -9 69 -5 7 4 9 3 6 -3 -3 -5 26 -17 66
-26 96 -22 227 -65 367 -120 63 -24 146 -54 184 -66 106 -34 311 -129 308
-142 -2 -7 5 -10 17 -6 13 3 68 -21 158 -70 155 -84 163 -90 141 -98 -10 -4
-80 29 -174 81 -214 117 -429 208 -754 320 -285 97 -394 119 -605 119 -113 0
-124 -2 -177 -29 -68 -34 -97 -76 -102 -147 -2 -27 0 -49 4 -49 4 0 8 21 8 46
2 65 31 106 100 140 50 25 68 29 152 29 275 0 517 -65 1040 -283 117 -48 180
-79 145 -71 -5 1 -22 -1 -36 -5 -20 -6 -43 1 -97 28 -184 93 -581 227 -758
256 -130 22 -248 24 -305 5 -120 -39 -155 -84 -152 -199 1 -63 7 -83 52 -179
55 -118 88 -170 101 -162 5 3 12 0 16 -6 4 -8 3 -9 -4 -5 -17 10 -15 -9 1 -23
8 -6 18 -7 23 -3 5 4 6 3 2 -2 -14 -17 65 -108 182 -207 41 -35 77 -67 80 -70
3 -3 40 -31 82 -63 131 -96 277 -170 437 -223 l146 -48 161 0 161 0 85 42 c82
41 164 108 201 163 l16 25 -9 -32 c-5 -19 -5 -33 0 -33 5 0 12 20 15 43 8 50
53 117 56 82 15 -203 -24 -275 -195 -362 -28 -14 -73 -32 -101 -39 -58 -16
-208 -18 -286 -4 -30 5 -74 12 -99 15 -25 4 -72 17 -105 30 -33 12 -81 31
-108 40 -73 27 -290 139 -360 187 -141 95 -359 291 -439 395 -22 29 -44 51
-47 48 -4 -2 -8 1 -8 8 0 7 -23 44 -51 82 -66 90 -137 230 -157 304 -8 32 -15
85 -15 117 0 47 5 66 31 106 39 60 88 87 174 95 40 4 62 10 58 16 -4 6 -1 7 6
2 7 -4 36 -9 64 -10z m829 -10 c121 -4 133 -7 235 -46 60 -23 170 -63 245 -90
76 -27 184 -67 240 -91 l103 -42 -40 -12 c-64 -20 -94 -16 -185 20 -47 19
-150 60 -230 91 -80 31 -158 62 -175 70 -48 21 -164 55 -178 51 -6 -1 -8 -1
-3 2 5 3 -13 13 -40 23 -54 21 -77 24 -54 8 20 -14 -21 -2 -64 18 -25 11 -26
13 -6 8 14 -3 82 -8 152 -10z m618 -74 c107 -38 235 -81 283 -95 157 -48 155
-45 46 -73 l-97 -24 -133 54 c-74 30 -170 66 -214 81 -44 14 -136 48 -205 76
l-125 49 85 3 c136 5 155 1 360 -71z m229 -21 c274 -90 308 -107 224 -109 -23
-1 -530 165 -594 194 l-34 16 60 -4 c42 -2 146 -31 344 -97z m2504 73 c-7 -2
-21 -2 -30 0 -10 3 -4 5 12 5 17 0 24 -2 18 -5z m-4463 -20 c-1 -5 -12 -21
-27 -38 -26 -30 -26 -30 11 33 8 13 16 16 16 5z m852 -8 c0 -5 -5 -10 -11 -11
-8 -2 -7 -1 0 3 8 4 7 8 -2 15 -11 8 -11 9 -1 6 8 -2 14 -8 14 -13z m3679 -5
c40 -12 83 -29 96 -37 55 -36 77 -125 59 -238 -6 -38 -70 -185 -81 -185 -3 0
2 14 11 32 19 37 52 151 58 205 7 56 -12 108 -58 157 -34 37 -51 46 -101 56
-56 12 -212 9 -330 -5 -22 -2 -2 4 45 13 130 27 216 27 301 2z m-1073 -21
c-19 -12 -25 -11 -25 5 0 8 8 11 20 8 14 -4 16 -7 5 -13z m-2563 1 c13 -6 15
-9 5 -9 -8 0 -22 4 -30 9 -18 12 -2 12 25 0z m3657 -13 c85 -35 131 -141 102
-230 -11 -32 -13 -35 -10 -11 3 17 0 37 -7 44 -9 10 -9 11 1 6 6 -4 12 -2 12
3 0 6 -3 11 -7 11 -5 0 -8 17 -8 37 0 26 -4 37 -13 35 -8 -1 -11 2 -8 7 11 17
-44 69 -92 86 -26 10 -78 21 -117 26 -69 8 -69 8 21 4 50 -2 107 -10 126 -18z
m-4839 -52 c4 -39 3 -50 -2 -30 -9 31 -14 102 -7 94 2 -2 6 -31 9 -64z m1317
21 c47 -15 100 -34 118 -43 18 -8 40 -12 48 -9 8 3 13 2 10 -3 -5 -8 70 -45
145 -72 20 -6 47 -20 60 -31 13 -10 -34 7 -105 38 -70 30 -185 76 -254 100
-70 25 -129 48 -132 51 -3 3 2 4 10 1 8 -3 53 -17 100 -32z m365 -31 c72 -28
185 -73 252 -99 68 -26 125 -52 128 -57 10 -15 -9 -11 -71 17 -144 62 -177 76
-314 130 -80 31 -152 60 -160 66 -29 18 33 -4 165 -57z m1965 61 c0 -2 -7 -7
-16 -10 -8 -3 -12 -2 -9 4 6 10 25 14 25 6z m50 -5 c-8 -5 -26 -11 -40 -15
-21 -5 -20 -3 5 9 32 15 60 20 35 6z m694 0 c4 -5 -3 -7 -14 -4 -23 6 -26 13
-6 13 8 0 17 -4 20 -9z m75 5 c-2 -2 -17 -6 -34 -10 -22 -5 -26 -4 -15 4 14 9
59 15 49 6z m-2947 -52 c194 -74 462 -189 447 -192 -9 -1 -119 40 -245 92
-300 124 -304 125 -304 131 0 8 3 7 102 -31z m2098 26 c8 -5 11 -10 5 -10 -5
0 -17 5 -25 10 -8 5 -10 10 -5 10 6 0 17 -5 25 -10z m675 1 c-11 -5 -36 -11
-55 -14 -35 -6 -34 -6 5 8 43 14 84 19 50 6z m474 -10 c64 -24 88 -44 107 -90
38 -92 6 -225 -93 -378 -191 -295 -532 -558 -873 -671 -189 -63 -348 -76 -474
-38 -61 18 -149 79 -180 124 -34 49 -33 62 2 31 133 -123 309 -159 552 -116
96 18 475 188 475 214 0 6 4 15 9 20 5 5 6 3 2 -4 -12 -21 3 -15 42 17 159
127 211 174 205 183 -3 5 -1 7 4 4 13 -8 47 29 38 42 -3 6 0 9 7 6 17 -7 62
51 52 67 -4 6 -3 8 3 5 16 -10 97 103 135 189 20 43 41 108 47 143 11 58 11
68 -10 117 -17 44 -30 60 -67 81 -40 24 -58 27 -156 31 -98 4 -128 0 -251 -28
-265 -60 -469 -135 -748 -276 -68 -34 -97 -42 -97 -26 0 13 83 55 210 107 63
26 144 61 180 77 36 17 99 41 140 53 390 121 427 130 586 134 81 2 111 -2 153
-18z m-4136 2 c-7 -2 -19 -2 -25 0 -7 3 -2 5 12 5 14 0 19 -2 13 -5z m2929 -6
c-12 -7 -21 -15 -18 -18 2 -2 -8 -4 -24 -4 -34 0 -30 5 13 21 43 16 57 16 29
1z m1290 -9 c13 -13 17 -18 8 -12 -8 6 -24 16 -35 22 -11 6 -15 12 -8 12 7 0
22 -10 35 -22z m-4192 0 c-103 -21 -123 -30 -166 -75 -24 -24 -44 -42 -44 -40
0 48 79 105 163 117 73 11 101 9 47 -2z m2810 2 c-8 -5 -19 -10 -25 -10 -5 0
-3 5 5 10 8 5 20 10 25 10 6 0 3 -5 -5 -10z m720 -9 c-26 -15 -66 -24 -55 -13
6 5 19 12 30 15 32 8 41 7 25 -2z m-3700 -26 c-19 -14 -36 -25 -39 -25 -10 1
53 50 63 50 6 0 -5 -11 -24 -25z m273 18 c-18 -2 -48 -2 -65 0 -18 2 -4 4 32
4 36 0 50 -2 33 -4z m2657 -3 c-8 -5 -19 -10 -25 -10 -5 0 -3 5 5 10 8 5 20
10 25 10 6 0 3 -5 -5 -10z m380 -4 c-14 -7 -36 -16 -50 -20 -14 -3 -7 3 15 13
45 22 73 27 35 7z m1691 -17 c-5 -13 -10 -19 -10 -12 -1 15 10 45 15 40 3 -2
0 -15 -5 -28z m-4897 0 c-64 -24 -98 -61 -117 -124 l-15 -50 -1 42 c-1 34 5
49 31 79 34 38 98 74 133 73 11 0 -3 -9 -31 -20z m273 15 c-3 -3 -12 -4 -19
-1 -8 3 -5 6 6 6 11 1 17 -2 13 -5z m480 0 c-3 -3 -12 -4 -19 -1 -8 3 -5 6 6
6 11 1 17 -2 13 -5z m2138 -4 c3 -6 -1 -7 -9 -4 -18 7 -21 14 -7 14 6 0 13 -4
16 -10z m1220 -6 c60 -20 88 -46 106 -100 16 -45 16 -56 3 -117 -8 -38 -21
-80 -30 -95 -8 -15 -12 -18 -8 -7 45 129 39 218 -20 268 -42 36 -91 51 -191
58 l-100 6 101 0 c58 1 117 -5 139 -13z m-3795 -20 c76 -15 114 -31 50 -20
-19 4 -51 8 -70 10 -19 2 -56 7 -83 11 -26 4 -79 1 -117 -5 -60 -10 -77 -18
-117 -54 l-46 -42 -1 -80 c-1 -74 2 -85 43 -172 25 -51 51 -97 58 -103 18 -16
16 -3 -4 28 -12 18 -13 24 -4 19 9 -6 12 -5 9 5 -3 8 -11 13 -17 11 -7 -1 -10
1 -7 6 3 4 -6 39 -20 76 -13 37 -24 77 -24 89 0 13 -6 29 -12 36 -10 11 -10
13 0 7 8 -5 12 2 12 23 0 30 37 83 70 101 67 36 272 33 408 -6 29 -8 58 -12
64 -8 7 4 8 3 4 -4 -4 -7 9 -15 36 -22 142 -38 470 -172 455 -186 -2 -2 -46
15 -98 39 -157 74 -239 105 -374 141 -33 8 -82 22 -110 29 -68 18 -221 21
-290 6 -91 -20 -137 -82 -128 -174 6 -69 52 -175 100 -232 10 -12 25 -32 33
-45 35 -55 179 -186 285 -259 135 -93 305 -174 417 -199 91 -19 239 -23 299
-7 67 18 145 56 188 93 37 30 45 29 28 -6 -17 -34 -81 -76 -154 -100 -75 -26
-214 -28 -318 -6 -75 16 -223 66 -267 91 -30 17 -42 19 -33 5 4 -6 -1 -7 -11
-3 -13 5 -15 3 -9 -8 5 -8 4 -11 0 -6 -15 13 -14 36 1 30 31 -12 12 8 -27 27
-22 12 -62 37 -89 56 -53 38 -81 46 -38 11 24 -20 25 -23 9 -23 -11 0 -18 3
-15 7 2 4 -3 12 -11 19 -8 7 -13 16 -10 20 3 4 -8 16 -23 26 -15 10 -49 38
-75 63 -49 46 -86 70 -55 35 9 -10 18 -23 20 -29 2 -5 8 -8 13 -7 6 2 7 0 3
-4 -4 -4 -2 -14 5 -23 34 -43 -78 57 -138 124 -134 149 -206 273 -226 391 -12
66 -11 73 10 118 48 99 183 126 401 80z m2445 11 c-50 -21 -83 -26 -40 -6 22
11 47 19 55 19 8 0 2 -5 -15 -13z m103 6 c11 -6 10 -10 -4 -15 -9 -3 -19 -4
-22 -1 -3 3 1 5 9 5 11 0 11 2 -1 10 -8 5 -10 10 -5 10 6 0 16 -4 23 -9z m587
-21 c-44 -16 -84 -28 -89 -27 -10 3 134 56 154 56 8 0 -21 -13 -65 -29z
m-2624 3 c12 -16 12 -17 -1 -7 -8 6 -22 14 -30 17 -13 5 -12 6 1 6 9 1 23 -7
30 -16z m3284 -13 c84 -43 109 -125 73 -240 -18 -60 -74 -162 -122 -226 -46
-62 -56 -81 -34 -68 7 4 8 3 4 -4 -4 -6 -12 -9 -19 -6 -7 2 -19 -5 -27 -17
-22 -31 -114 -118 -155 -146 -19 -13 -33 -28 -30 -33 3 -5 0 -12 -6 -16 -8 -4
-9 -3 -5 4 11 18 -10 14 -25 -4 -7 -9 -32 -29 -56 -45 -24 -17 -41 -34 -38
-39 3 -5 0 -12 -6 -16 -8 -4 -9 -3 -5 4 11 17 -2 15 -45 -10 -21 -11 -35 -26
-32 -31 3 -6 1 -7 -5 -3 -6 4 -28 -4 -49 -17 -39 -25 -224 -95 -272 -103 -14
-3 -54 -12 -89 -20 -96 -21 -181 -18 -269 11 -119 40 -170 91 -187 188 -7 39
9 143 24 152 8 5 81 -78 84 -98 4 -23 44 -92 62 -108 11 -9 44 -26 74 -39 46
-20 72 -24 160 -24 127 0 183 13 320 74 164 74 249 127 360 225 79 70 82 74
146 155 64 81 97 138 90 157 -3 8 -1 11 4 8 24 -15 41 95 26 166 -6 28 -18 42
-58 68 -30 20 -57 31 -69 28 -12 -3 -17 -1 -13 5 7 10 -211 2 -228 -8 -4 -3
-33 -9 -65 -15 -113 -21 -351 -113 -532 -205 -85 -44 -101 -46 -129 -11 -9 11
7 23 91 64 56 28 157 72 224 98 68 26 120 52 117 56 -3 5 2 6 10 3 8 -3 64 10
123 30 111 36 162 50 223 62 19 4 51 10 70 15 19 4 80 7 135 6 86 -2 108 -6
150 -27z m-995 10 c-8 -5 -19 -10 -25 -10 -5 0 -3 5 5 10 8 5 20 10 25 10 6 0
3 -5 -5 -10z m0 -26 c-41 -19 -124 -55 -185 -78 -95 -38 -214 -89 -237 -103
-5 -2 -8 0 -8 6 0 5 36 24 80 42 54 22 76 36 67 42 -7 5 -3 6 12 2 16 -5 21
-4 17 4 -4 7 -1 9 8 5 8 -3 29 2 48 12 38 20 248 102 263 102 6 1 -24 -15 -65
-34z m-3523 -6 c-3 -7 -5 -2 -5 12 0 14 2 19 5 13 2 -7 2 -19 0 -25z m596 25
c-7 -2 -21 -2 -30 0 -10 3 -4 5 12 5 17 0 24 -2 18 -5z m1912 -33 c140 -42
135 -40 95 -56 -33 -13 -42 -12 -165 30 -128 43 -130 44 -95 54 40 11 31 13
165 -28z m713 30 c-26 -16 -312 -130 -323 -130 -17 1 25 22 118 60 48 20 84
39 81 42 -3 3 0 9 7 14 8 4 10 3 5 -4 -10 -17 12 -14 59 8 43 20 84 27 53 10z
m-3398 -37 c-11 -17 -11 -17 -6 0 3 10 6 24 7 30 0 9 2 9 5 0 3 -7 0 -20 -6
-30z m427 -4 c-7 -30 -7 -47 1 -60 7 -10 14 -39 17 -64 3 -25 10 -58 16 -72 5
-14 8 -28 5 -30 -6 -6 -36 88 -36 114 0 16 -4 22 -12 17 -7 -4 -8 -3 -4 4 4 7
1 12 -6 13 -7 0 -8 3 -3 5 6 2 9 19 7 38 -3 29 11 76 22 76 2 0 -1 -19 -7 -41z
m266 34 c-7 -2 -19 -2 -25 0 -7 3 -2 5 12 5 14 0 19 -2 13 -5z m-71 -20 c-40
-19 -82 -72 -82 -101 0 -12 -4 -22 -8 -22 -5 0 -7 13 -4 30 5 34 81 110 109
110 11 0 5 -7 -15 -17z m2598 7 c-8 -5 -19 -10 -25 -10 -5 0 -3 5 5 10 8 5 20
10 25 10 6 0 3 -5 -5 -10z m-625 -44 c144 -48 143 -41 18 -86 -34 -12 -73 -20
-85 -17 -27 6 -236 85 -252 94 -9 6 140 49 179 52 6 1 69 -19 140 -43z m-1425
7 c30 -11 31 -12 6 -8 -16 4 -43 13 -60 20 -23 11 -25 13 -6 8 14 -3 41 -12
60 -20z m2009 23 c-10 -10 -183 -75 -187 -71 -3 2 4 8 14 11 10 4 51 20 89 35
65 26 94 35 84 25z m-2139 -45 c36 -12 67 -21 70 -21 42 -5 110 -28 257 -87
129 -51 205 -91 198 -103 -7 -11 -20 -6 -145 52 -97 46 -281 112 -335 121 -16
3 -51 10 -76 15 -71 14 -196 15 -237 1 -102 -32 -130 -90 -99 -204 27 -101 77
-176 198 -295 204 -201 476 -330 697 -330 65 0 98 5 145 24 34 13 71 27 82 30
11 3 48 33 82 66 34 33 64 60 67 60 3 0 6 -15 6 -33 0 -61 -106 -138 -238
-173 -60 -17 -191 -13 -282 7 -66 15 -204 71 -290 119 -237 131 -449 341 -516
512 -49 125 -22 225 68 248 24 6 48 13 53 15 26 12 235 -6 295 -24z m-603 -3
c-3 -8 -6 -5 -6 6 -1 11 2 17 5 13 3 -3 4 -12 1 -19z m803 2 c8 -5 11 -10 5
-10 -5 0 -17 5 -25 10 -8 5 -10 10 -5 10 6 0 17 -5 25 -10z m1193 -66 c42 -16
77 -31 77 -34 0 -7 -104 -43 -123 -43 -6 0 -32 9 -57 20 -25 12 -63 28 -85 37
-22 9 -62 27 -89 39 l-48 22 63 16 c71 17 43 23 262 -57z m-633 56 c8 -5 11
-10 5 -10 -5 0 -17 5 -25 10 -8 5 -10 10 -5 10 6 0 17 -5 25 -10z m1091 -2
l33 -11 -34 -13 c-45 -16 -62 -17 -97 -3 l-28 11 30 14 c38 17 54 17 96 2z
m209 -3 c-14 -8 -29 -14 -35 -14 -5 0 1 6 15 14 14 8 30 14 35 14 6 0 -1 -6
-15 -14z m1405 0 c44 -11 68 -24 89 -48 25 -28 27 -29 21 -8 -5 16 -4 21 4 16
7 -4 9 -20 6 -43 -5 -29 -4 -34 5 -22 10 13 11 12 6 -4 -4 -10 -1 -26 6 -35
12 -14 11 -14 -4 -2 -21 15 -24 2 -5 -18 10 -11 9 -12 -2 -6 -11 6 -13 2 -9
-19 3 -15 3 -24 0 -21 -4 3 -16 -16 -28 -43 -35 -79 -128 -205 -188 -252 -30
-24 -52 -48 -49 -53 3 -6 1 -7 -4 -4 -6 4 -19 -3 -29 -14 -30 -34 -160 -118
-233 -151 -36 -17 -90 -41 -119 -54 -29 -13 -57 -24 -62 -24 -6 0 -10 -6 -11
-12 0 -9 -2 -9 -5 -2 -4 8 -16 9 -44 2 -22 -6 -38 -13 -36 -17 2 -3 -45 -6
-104 -6 -59 0 -106 3 -103 8 2 4 -7 7 -20 7 -30 0 -114 56 -136 90 l-16 25 28
-22 c15 -12 59 -34 98 -48 63 -24 79 -26 172 -22 122 5 210 25 292 65 33 16
71 33 85 37 64 20 257 171 334 261 78 92 128 193 132 266 3 53 1 60 -29 92
-18 19 -50 39 -72 45 -48 13 -204 15 -238 2 -13 -5 -39 -12 -58 -15 -19 -3
-61 -14 -93 -26 -33 -11 -65 -20 -72 -20 -7 0 -37 -11 -66 -24 -29 -13 -82
-36 -118 -52 -36 -16 -95 -45 -132 -66 -37 -21 -70 -38 -73 -38 -44 0 167 111
340 178 148 58 194 72 307 91 133 24 161 24 233 6z m415 1 c0 -3 -4 -8 -10
-11 -5 -3 -10 -1 -10 4 0 6 5 11 10 11 6 0 10 -2 10 -4z m-4096 -15 c4 -5 -3
-7 -14 -4 -23 6 -26 13 -6 13 8 0 17 -4 20 -9z m1068 -20 c4 -3 -6 -6 -22 -6
-15 0 -27 2 -24 4 2 2 -4 10 -14 17 -14 12 -12 12 18 2 19 -6 38 -13 42 -17z
m1503 11 c-3 -3 -11 0 -18 7 -9 10 -8 11 6 5 10 -3 15 -9 12 -12z m-2011 -13
c5 -5 -5 -4 -24 1 -18 5 -35 12 -39 16 -9 9 53 -7 63 -17z m759 -3 c29 -13 92
-41 141 -62 49 -21 84 -40 78 -42 -6 -2 -32 6 -58 17 -25 12 -51 18 -57 14 -5
-3 -7 -1 -3 5 4 6 -27 23 -79 43 -47 17 -88 36 -91 40 -9 15 16 10 69 -15z
m827 17 c0 -9 -49 -33 -64 -33 -6 1 5 9 24 20 41 22 40 22 40 13z m400 -8 c0
-2 -6 -5 -13 -8 -8 -3 -14 1 -14 8 0 7 6 11 14 8 7 -3 13 -6 13 -8z m-2476 -5
c-134 -27 -165 -51 -169 -127 -2 -27 5 -72 16 -103 14 -42 15 -50 4 -35 -31
40 -46 144 -29 198 4 13 2 17 -5 13 -6 -4 -12 -17 -12 -29 -1 -19 -2 -19 -6
-3 -3 10 0 23 6 29 18 18 13 31 -6 16 -17 -13 -17 -12 -4 4 14 18 16 18 28 1
12 -16 18 -12 14 10 -2 10 18 26 33 26 6 0 1 -7 -10 -15 -25 -19 -20 -18 46 5
30 10 73 18 95 18 l40 0 -41 -8z m121 0 c-3 -5 -12 -10 -18 -10 -7 0 -6 4 3
10 19 12 23 12 15 0z m1772 -1 c27 -10 25 -12 -62 -48 -88 -37 -91 -37 -127
-22 l-38 16 28 12 c130 55 152 60 199 42z m193 -19 c-19 -11 -42 -19 -50 -19
-8 0 3 9 25 20 52 24 70 24 25 -1z m335 10 c3 -6 -1 -7 -9 -4 -18 7 -21 14 -7
14 6 0 13 -4 16 -10z m1150 -1 c21 -6 53 -25 71 -43 28 -28 31 -36 28 -84 -4
-70 -51 -162 -128 -253 -80 -95 -268 -242 -336 -264 -14 -4 -52 -21 -85 -36
-153 -72 -334 -89 -452 -43 -119 47 -150 100 -111 193 18 44 93 141 108 141 4
0 13 -14 21 -31 10 -26 10 -37 -1 -63 -7 -17 -14 -49 -16 -71 -3 -32 1 -44 19
-58 20 -16 20 -17 2 -11 -17 5 -16 2 5 -15 57 -49 81 -56 180 -55 111 0 205
27 335 94 83 44 104 59 222 167 79 72 139 164 152 236 10 56 -15 108 -63 131
-46 22 -214 22 -287 0 -153 -46 -343 -128 -425 -185 -27 -18 -49 -27 -60 -22
-10 4 -15 2 -11 -4 3 -5 -11 -26 -31 -46 l-37 -36 -18 25 -18 24 46 29 c26 16
53 27 61 24 9 -3 14 0 12 7 -4 14 130 91 222 127 36 15 70 29 75 33 11 8 179
61 265 83 68 18 201 21 255 6z m-3463 -13 c42 -10 60 -10 69 -2 9 8 10 8 4 -3
-6 -11 0 -13 28 -9 20 2 34 2 32 -1 -3 -2 32 -16 78 -31 79 -26 116 -41 204
-83 23 -10 46 -16 52 -12 6 3 10 1 9 -5 -2 -7 14 -21 35 -32 20 -11 38 -27 38
-36 1 -10 3 -27 4 -39 3 -28 -3 -28 -35 -3 -27 21 -45 26 -35 10 3 -5 28 -21
56 -37 46 -24 84 -72 95 -118 24 -91 22 -125 -5 -164 -44 -61 -128 -75 -264
-45 -40 9 -93 27 -119 40 -26 13 -53 21 -61 18 -8 -3 -18 -1 -22 5 -4 7 1 9
12 5 16 -5 16 -4 -1 10 -11 9 -25 16 -32 16 -6 0 -17 7 -24 15 -18 21 -35 19
-19 -2 13 -16 12 -17 -3 -5 -10 8 -16 17 -15 21 1 3 -37 44 -84 91 -70 69 -89
95 -104 140 -10 30 -19 64 -20 74 -3 32 46 77 93 86 59 10 201 -14 312 -55 24
-9 53 -14 63 -11 10 2 16 2 13 -1 -8 -9 113 -75 124 -68 5 3 21 -2 35 -11 14
-9 28 -14 31 -11 10 9 -190 109 -223 110 -17 1 -31 6 -30 10 6 28 -230 82
-324 74 -107 -9 -138 -40 -134 -133 2 -43 11 -63 52 -125 50 -73 132 -159 153
-159 6 0 -16 25 -48 55 -79 72 -142 170 -144 221 -4 89 24 120 120 130 52 6
180 -11 169 -22 -2 -3 -31 0 -64 5 -88 14 -138 4 -179 -34 -28 -26 -33 -38
-30 -66 9 -80 59 -165 141 -235 30 -26 53 -50 50 -53 -6 -6 35 -51 47 -51 5 0
26 -12 48 -26 22 -15 46 -24 55 -20 9 3 14 2 11 -3 -8 -12 101 -58 169 -70
147 -27 248 -8 329 64 43 40 57 38 51 -6 -8 -66 -61 -109 -158 -129 -83 -17
-224 5 -338 52 -66 27 -216 112 -245 139 -11 11 -24 16 -28 12 -4 -5 -6 -3 -5
2 2 6 -36 49 -84 97 -48 48 -87 84 -87 81 0 -10 -41 31 -52 52 -6 11 4 4 20
-15 37 -42 42 -32 7 14 -33 44 -62 132 -59 180 6 90 124 136 266 102z m51 7
c-7 -2 -19 -2 -25 0 -7 3 -2 5 12 5 14 0 19 -2 13 -5z m1075 -45 c139 -61 174
-81 149 -86 -9 -2 -73 24 -141 57 -69 34 -130 61 -135 61 -5 0 -13 5 -16 10
-13 21 29 8 143 -42z m884 32 c-18 -11 -38 -20 -45 -20 -14 1 52 39 68 40 6 0
-5 -9 -23 -20z m-2534 -65 l1 -20 -9 20 c-5 11 -8 34 -8 50 l0 30 8 -30 c4
-16 8 -39 8 -50z m962 71 c0 -2 -7 -7 -16 -10 -8 -3 -12 -2 -9 4 6 10 25 14
25 6z m1612 -18 c-24 -11 -46 -17 -49 -15 -8 8 50 36 72 36 13 -1 4 -8 -23
-21z m-1116 1 c3 -6 15 -9 25 -6 11 3 17 2 14 -3 -7 -11 52 -33 66 -24 7 4 10
3 5 -4 -9 -14 52 -44 78 -37 12 3 15 2 8 -1 -15 -7 -6 -24 14 -24 9 0 12 5 8
12 -4 7 -3 8 5 4 6 -4 9 -11 6 -16 -3 -5 6 -15 21 -23 17 -9 23 -17 15 -21 -6
-4 -55 17 -109 46 -53 29 -122 65 -152 79 -38 19 -48 28 -33 28 12 1 25 -4 29
-10z m864 1 c-8 -5 -19 -10 -25 -10 -5 0 -3 5 5 10 8 5 20 10 25 10 6 0 3 -5
-5 -10z m-9 -31 c-89 -42 -146 -54 -72 -15 30 16 40 25 30 29 -8 3 -3 4 11 1
14 -3 41 2 60 10 73 32 51 13 -29 -25z m378 24 c7 -6 -11 -19 -45 -32 -25 -10
-38 -10 -65 2 l-34 14 45 15 c39 14 85 14 99 1z m451 7 c-8 -5 -19 -10 -25
-10 -5 0 -3 5 5 10 8 5 20 10 25 10 6 0 3 -5 -5 -10z m-2120 -10 c8 -5 11 -10
5 -10 -5 0 -17 5 -25 10 -8 5 -10 10 -5 10 6 0 17 -5 25 -10z m1405 1 c-15
-13 -175 -80 -175 -72 0 3 37 22 83 43 84 37 109 45 92 29z m-2367 -7 c-3 -3
0 -28 8 -57 15 -57 12 -77 -4 -25 -16 49 -18 88 -5 88 3 0 4 -3 1 -6z m3042 1
c0 -5 -70 -44 -105 -58 -35 -14 -3 9 50 37 53 28 55 28 55 21z m-1975 -47 c11
-12 11 -12 -47 15 -21 10 -38 20 -38 22 0 8 73 -24 85 -37z m977 25 c33 -13
38 -18 23 -23 -18 -6 -31 -40 -15 -40 4 0 24 7 44 15 20 8 36 11 36 6 0 -4
-21 -16 -47 -26 -27 -10 -53 -21 -58 -26 -6 -4 -17 -4 -24 0 -9 6 -6 10 11 14
14 4 25 14 25 22 0 11 -6 14 -16 9 -63 -25 -69 -25 -113 -3 l-43 22 60 23 c73
28 66 28 117 7z m338 -1 c-70 -34 -150 -64 -162 -60 -15 5 149 76 177 77 14 0
9 -5 -15 -17z m576 6 c4 -7 3 -8 -4 -4 -7 4 -22 0 -34 -8 -12 -9 -27 -16 -33
-16 -10 0 44 38 57 39 4 1 10 -4 14 -11z m-1601 -66 c55 -30 120 -66 144 -80
l44 -25 -27 -14 c-27 -14 -31 -13 -70 15 -24 17 -96 58 -162 91 -68 34 -113
62 -104 65 53 17 44 20 175 -52z m795 53 c-14 -8 -29 -14 -35 -14 -5 0 1 6 15
14 14 8 30 14 35 14 6 0 -1 -6 -15 -14z m206 -30 c-50 -25 -95 -44 -100 -41
-6 2 9 13 34 24 25 10 66 29 90 40 84 39 65 22 -24 -23z m364 40 c0 -7 -87
-45 -102 -45 -8 0 -6 5 5 11 9 6 15 14 12 20 -3 5 1 6 9 3 8 -3 23 -1 33 5 19
11 43 14 43 6z m1140 -15 c49 -26 68 -89 46 -155 -32 -102 -219 -284 -363
-355 -166 -81 -291 -106 -399 -79 -73 19 -108 80 -90 158 l8 34 15 -32 c22
-44 80 -88 137 -102 145 -36 384 65 519 220 64 74 92 136 83 186 -27 140 -379
73 -635 -121 -24 -19 -46 -32 -50 -29 -15 9 -5 58 14 69 11 6 38 23 61 38 67
44 272 134 328 144 16 2 37 9 48 15 47 25 235 31 278 9z m-1352 4 c30 -9 28
-20 -8 -33 -17 -5 -29 -15 -28 -22 2 -6 -4 -14 -12 -16 -13 -4 -13 -3 0 6 33
23 -11 10 -58 -18 -45 -26 -51 -28 -80 -15 -18 7 -32 16 -32 19 0 9 161 85
179 85 9 0 26 -3 39 -6z m1903 -17 c-10 -9 -11 -8 -5 6 3 10 9 15 12 12 3 -3
0 -11 -7 -18z m-1623 7 c32 -9 28 -17 -23 -42 -39 -19 -48 -20 -81 -8 l-37 12
44 22 c47 23 62 25 97 16z m-693 -14 c-3 -5 -14 -10 -23 -9 -14 0 -13 2 3 9
27 11 27 11 20 0z m-1944 -23 c-10 -9 -11 -8 -5 6 3 10 9 15 12 12 3 -3 0 -11
-7 -18z m1754 -7 c20 -10 31 -21 25 -25 -11 -7 -90 34 -90 47 0 8 15 4 65 -22z
m-2165 14 c0 -8 -19 -13 -24 -6 -3 5 1 9 9 9 8 0 15 -2 15 -3z m897 0 c-3 -3
-12 -4 -19 -1 -8 3 -5 6 6 6 11 1 17 -2 13 -5z m53 -10 c0 -2 -9 -4 -20 -4
-11 0 -20 4 -20 9 0 5 9 7 20 4 11 -3 20 -7 20 -9z m446 0 c18 -14 18 -14 -6
-3 -31 14 -36 19 -24 19 6 0 19 -7 30 -16z m1474 7 c3 -1 -38 -25 -90 -55 -52
-29 -101 -51 -109 -48 -14 5 39 43 87 63 13 5 20 13 17 19 -4 6 1 7 11 3 12
-4 15 -3 10 5 -5 8 -1 10 10 5 10 -4 15 -2 11 3 -4 8 21 10 53 5z m-2650 -36
c0 -5 -5 -3 -10 5 -5 8 -10 20 -10 25 0 6 5 3 10 -5 5 -8 10 -19 10 -25z
m2209 22 c-10 -8 -108 -47 -116 -46 -4 0 19 13 52 29 33 15 62 26 64 24 2 -2
2 -5 0 -7z m706 3 c-3 -5 -12 -10 -18 -10 -7 0 -6 4 3 10 19 12 23 12 15 0z
m-1714 -35 c5 4 6 11 2 17 -8 14 121 -54 201 -106 31 -20 56 -41 56 -47 0 -8
-4 -8 -15 1 -8 6 -20 8 -26 4 -7 -4 -9 -3 -6 3 9 14 -162 125 -180 118 -8 -2
-11 0 -8 5 3 6 2 10 -4 10 -5 0 -12 -4 -16 -10 -7 -12 52 -43 67 -34 7 4 8 3
4 -5 -4 -6 0 -14 11 -19 35 -14 142 -95 137 -104 -3 -4 -33 12 -68 36 -85 59
-225 146 -237 146 -5 0 -9 5 -9 10 0 6 18 1 40 -10 23 -11 45 -18 51 -15z
m1539 2 c0 -5 7 -6 16 -3 27 10 4 -14 -29 -30 l-32 -15 25 20 c47 39 5 21 -80
-33 -86 -55 -90 -56 -133 -24 -17 13 -10 18 73 65 85 47 94 50 126 40 19 -6
34 -15 34 -20z m-1010 13 c8 -5 11 -10 5 -10 -5 0 -17 5 -25 10 -8 5 -10 10
-5 10 6 0 17 -5 25 -10z m124 -12 c25 -12 47 -27 50 -33 6 -17 -40 -6 -87 20
-34 20 -36 25 -10 34 1 1 23 -9 47 -21z m343 -8 c-26 -16 -56 -30 -66 -30 -10
0 -21 -7 -25 -15 -3 -8 -12 -12 -21 -9 -21 9 -17 12 67 50 91 42 106 43 45 4z
m608 20 c-3 -5 -12 -10 -18 -10 -7 0 -6 4 3 10 19 12 23 12 15 0z m74 7 c-2
-1 -13 -9 -24 -17 -19 -14 -19 -14 -6 3 7 9 18 17 24 17 6 0 8 -1 6 -3z m105
-6 c8 -13 -74 -59 -96 -53 -28 7 -22 15 30 39 54 25 59 26 66 14z m-1816 -40
c82 -50 207 -133 221 -147 12 -11 12 -16 1 -29 -11 -13 -17 -11 -51 17 -22 18
-56 47 -76 64 -21 18 -69 48 -107 68 -90 48 -87 46 -80 57 8 13 39 3 92 -30z
m1112 29 c0 -6 -11 -15 -25 -20 -15 -6 -51 -22 -81 -36 -30 -14 -58 -23 -61
-20 -3 3 2 9 12 12 10 4 43 22 73 41 57 34 82 41 82 23z m1541 -21 c19 -26 18
-83 -2 -122 -59 -111 -259 -254 -400 -286 -70 -17 -150 -13 -189 8 -72 38 -98
145 -48 199 31 33 154 116 209 140 183 80 231 93 328 88 74 -3 87 -7 102 -27z
m-2806 3 c-3 -3 -11 0 -18 7 -9 10 -8 11 6 5 10 -3 15 -9 12 -12z m-1197 -17
c-3 -3 -9 2 -12 12 -6 14 -5 15 5 6 7 -7 10 -15 7 -18z m202 5 c6 -11 8 -20 6
-20 -3 0 -10 9 -16 20 -6 11 -8 20 -6 20 3 0 10 -9 16 -20z m1791 -1 c54 -27
45 -35 -10 -8 -24 11 -45 18 -48 15 -3 -3 12 -12 33 -21 27 -11 35 -18 26 -27
-6 -6 -17 -8 -24 -4 -7 4 -29 15 -48 26 l-35 18 25 11 c35 14 36 14 81 -10z
m211 9 c-9 -9 -15 -9 -24 0 -9 9 -7 12 12 12 19 0 21 -3 12 -12z m323 -1 c11
-7 21 -18 23 -25 1 -8 -2 -11 -8 -7 -6 4 -38 -7 -71 -24 l-59 -32 -22 20 c-25
24 -27 21 37 54 56 29 71 31 100 14z m135 8 c0 -2 -14 -12 -31 -21 -17 -8 -28
-11 -24 -4 4 6 17 15 29 20 27 11 26 11 26 5z m580 -15 c28 -21 30 -19 -31
-53 l-47 -25 -32 20 -33 20 49 29 c58 34 62 34 94 9z m-265 -6 c-11 -8 -58
-40 -104 -70 -61 -39 -78 -46 -59 -27 14 16 24 36 23 45 -2 10 1 20 5 23 5 3
7 -4 5 -15 -5 -24 5 -25 31 -4 13 11 14 14 3 11 -9 -3 -16 1 -16 8 0 10 6 11
22 3 18 -8 30 -5 61 15 43 28 61 35 29 11z m-725 2 c0 -2 -7 -7 -16 -10 -8 -3
-12 -2 -9 4 6 10 25 14 25 6z m2161 -43 c-11 -21 -20 -33 -21 -26 0 13 33 73
38 68 2 -2 -6 -20 -17 -42z m-2756 -3 c3 -5 -10 -1 -29 11 -20 12 -36 23 -36
25 0 7 58 -25 65 -36z m239 25 c11 -8 16 -15 10 -15 -5 0 -18 7 -28 15 -11 8
-16 15 -10 15 5 0 18 -7 28 -15z m1113 -40 c-34 -24 -61 -49 -59 -55 1 -6 -2
-9 -7 -5 -13 7 -63 -24 -56 -35 3 -5 0 -12 -6 -16 -8 -5 -9 -3 -4 6 5 9 2 10
-12 6 -12 -4 -25 -1 -31 7 -13 15 8 34 120 103 47 29 75 40 92 37 23 -5 20 -9
-37 -48z m-892 35 c-3 -5 -14 -10 -23 -10 -15 0 -15 2 -2 10 20 13 33 13 25 0z
m470 1 c-20 -20 -137 -81 -124 -65 12 15 11 16 -11 9 -29 -9 -25 -3 9 15 18 9
22 9 16 0 -5 -8 -3 -11 6 -8 8 3 13 10 12 16 -2 7 4 9 14 5 10 -4 14 -2 9 5
-3 6 -1 14 5 18 8 4 9 3 5 -4 -10 -17 6 -15 30 3 21 16 44 21 29 6z m-1305
-16 c43 -22 115 -72 130 -90 7 -8 17 -15 22 -15 6 0 4 8 -3 17 -13 16 -12 16
6 3 49 -35 95 -76 95 -85 0 -5 -17 8 -38 28 -51 49 -66 48 -18 -2 39 -40 40
-47 8 -83 -14 -16 -18 -14 -56 33 -22 28 -69 73 -102 99 -37 29 -66 61 -72 79
-13 36 -11 36 28 16z m567 -5 c14 -11 30 -17 37 -13 6 3 8 3 4 -2 -4 -4 -3
-14 3 -22 20 -23 -18 -15 -62 14 -29 19 -36 29 -27 34 17 11 16 12 45 -11z
m1443 7 c0 -14 -85 -68 -94 -60 -4 5 81 73 91 73 2 0 3 -6 3 -13z m-1210 -13
c0 -2 -7 -4 -15 -4 -8 0 -15 4 -15 10 0 5 7 7 15 4 8 -4 15 -8 15 -10z m105
-8 c19 -7 19 -8 2 -17 -19 -11 -41 -3 -32 12 4 5 -2 9 -12 9 -15 0 -16 2 -3
10 8 5 17 5 20 1 3 -4 14 -11 25 -15z m439 14 c-5 -5 -36 -26 -69 -45 -43 -27
-61 -33 -69 -24 -7 7 -7 13 -1 15 6 2 33 17 60 34 48 28 100 41 79 20z m526
-42 c0 -4 -21 -21 -47 -38 -27 -18 -67 -54 -91 -81 -24 -27 -49 -49 -56 -49
-7 0 -27 15 -44 33 l-32 33 22 20 c13 11 34 28 48 37 14 9 49 34 79 55 l55 39
32 -21 c18 -12 33 -24 34 -28z m-2938 27 c3 0 10 -4 15 -9 5 -5 3 -6 -4 -2
-16 9 -17 -6 -1 -22 7 -7 9 -12 6 -12 -4 0 -17 14 -29 32 -13 17 -16 27 -8 22
7 -5 17 -9 21 -9z m1609 -17 c27 -17 49 -33 49 -34 0 -2 -13 -10 -30 -19 -29
-15 -31 -14 -74 19 -45 34 -45 34 -23 50 28 19 22 21 78 -16z m559 12 c34 -30
12 -48 -23 -20 -15 12 -27 26 -27 31 0 16 26 10 50 -11z m437 5 c0 -8 -10 -23
-21 -34 -18 -16 -23 -17 -34 -5 -10 11 -8 15 10 25 21 11 22 11 9 -4 -8 -10
-9 -17 -3 -17 10 0 25 17 28 33 3 14 4 17 7 17 2 0 4 -7 4 -15z m-900 -10 c0
-8 -4 -12 -9 -9 -5 3 -6 10 -3 15 9 13 12 11 12 -6z m128 6 c7 -12 -12 -24
-25 -16 -11 7 -4 25 10 25 5 0 11 -4 15 -9z m647 -7 c34 -18 35 -15 -46 -78
l-59 -45 -29 24 c-16 13 -29 27 -29 31 -1 7 112 84 124 84 4 0 22 -7 39 -16z
m-1025 -9 c0 -8 -4 -12 -9 -9 -5 3 -6 10 -3 15 9 13 12 11 12 -6z m453 11 c0
-11 -19 -15 -25 -6 -3 5 1 10 9 10 9 0 16 -2 16 -4z m217 -17 c19 -12 32 -24
29 -26 -5 -5 -76 35 -76 43 0 8 14 3 47 -17z m-102 2 c6 -11 -33 -26 -43 -16
-4 3 0 10 8 15 19 12 27 12 35 1z m-150 -11 c-3 -5 -13 -10 -21 -10 -8 0 -12
5 -9 10 3 6 13 10 21 10 8 0 12 -4 9 -10z m80 -10 c21 -14 25 -20 13 -20 -10
0 -18 5 -18 10 0 6 -6 10 -14 10 -8 0 -18 5 -21 10 -10 16 7 12 40 -10z m155
-41 c0 -18 -36 -17 -67 3 -33 19 -34 22 -18 34 14 11 23 9 51 -9 19 -12 34
-25 34 -28z m-597 21 c4 0 5 6 1 13 -4 6 -4 9 0 5 4 -3 6 -8 4 -11 -1 -3 6
-15 17 -28 17 -19 14 -18 -17 5 -21 16 -38 31 -38 34 0 3 5 1 12 -6 7 -7 16
-12 21 -12z m252 10 c3 -5 -1 -10 -9 -10 -8 0 -18 5 -21 10 -3 6 1 10 9 10 8
0 18 -4 21 -10z m149 1 c7 -11 -14 -20 -31 -13 -7 2 -10 8 -7 13 7 12 31 12
38 0z m316 -1 c0 -5 -7 -10 -16 -10 -8 0 -12 5 -9 10 3 6 10 10 16 10 5 0 9
-4 9 -10z m300 6 c0 -2 -19 -16 -42 -31 -25 -17 -37 -30 -30 -33 10 -3 7 -11
-9 -28 -12 -13 -27 -24 -32 -24 -6 0 0 11 13 25 26 28 17 34 -12 8 -10 -9 -20
-14 -23 -12 -5 6 114 99 126 99 5 0 9 -2 9 -4z m373 -78 c-44 -46 -85 -93 -92
-106 -10 -19 -15 -21 -27 -11 -22 18 -17 32 26 74 21 21 36 43 33 48 -3 6 -2
7 4 4 5 -3 31 12 57 33 84 70 83 44 -1 -42z m-1400 36 c26 -20 44 -41 41 -46
-4 -5 -21 4 -38 21 -38 37 -60 42 -26 6 13 -14 20 -25 16 -25 -5 0 -3 -7 4
-15 10 -12 10 -19 2 -27 -8 -8 -23 2 -56 36 -26 26 -46 49 -46 51 0 14 30 2
50 -20 13 -14 28 -25 33 -25 6 0 1 10 -11 23 -11 12 -22 27 -24 32 -2 6 -7 9
-11 7 -5 -1 -6 2 -2 8 10 16 19 12 68 -26z m177 26 c0 -5 -13 -16 -30 -25 -38
-19 -40 -6 -2 17 32 21 32 21 32 8z m42 -8 c-7 -2 -10 -7 -7 -12 8 -13 -45
-42 -63 -35 -13 5 -9 10 18 28 19 12 37 25 38 29 2 5 9 5 15 1 8 -5 8 -8 -1
-11z m544 7 c8 -14 -11 -33 -25 -25 -11 7 -4 36 9 36 5 0 12 -5 16 -11z m254
-19 c-41 -34 -32 -40 13 -9 18 12 5 -4 -28 -34 -65 -61 -99 -78 -46 -23 20 20
28 35 21 38 -7 2 5 16 26 30 51 35 57 34 14 -2z m604 -13 c-2 -11 -14 -35 -26
-53 l-23 -33 -16 32 -17 32 37 31 c37 32 53 29 45 -9z m-3313 16 c13 -16 12
-17 -3 -4 -10 7 -18 15 -18 17 0 8 8 3 21 -13z m1754 -3 c10 -11 16 -20 13
-20 -3 0 -13 9 -23 20 -10 11 -16 20 -13 20 3 0 13 -9 23 -20z m376 -3 c-13
-13 -26 -3 -16 12 3 6 11 8 17 5 6 -4 6 -10 -1 -17z m1042 -59 c-41 -42 -103
-147 -103 -173 0 -7 6 -16 13 -19 6 -2 2 -4 -11 -2 -12 1 -35 18 -51 36 -27
33 -28 36 -13 60 8 14 49 60 91 102 75 78 76 78 95 58 20 -20 20 -20 -21 -62z
m-1782 -30 c27 -33 47 -64 44 -69 -3 -5 -25 19 -48 53 -23 34 -49 64 -56 66
-8 3 7 -23 32 -56 26 -33 47 -71 47 -83 0 -30 -85 -106 -128 -115 -18 -3 -35
-10 -38 -15 -3 -5 -40 -8 -82 -7 l-77 1 70 7 c91 8 119 21 150 68 19 29 24 48
21 78 -6 57 -17 107 -29 122 -7 9 -5 11 9 6 16 -6 15 -2 -6 21 l-25 29 33 -23
c18 -13 55 -50 83 -83z m599 92 c0 -5 -7 -10 -15 -10 -8 0 -15 5 -15 10 0 6 7
10 15 10 8 0 15 -4 15 -10z m234 -13 c16 -13 25 -26 20 -30 -5 -3 -25 8 -44
24 -21 17 -29 29 -20 29 8 0 28 -11 44 -23z m-15 -53 c-9 -11 -17 -8 -44 13
-25 20 -31 30 -23 40 8 10 17 7 44 -14 27 -20 32 -29 23 -39z m325 27 c15 -16
17 -24 8 -33 -8 -8 -20 -4 -47 16 -29 22 -34 31 -24 42 13 16 34 7 63 -25z
m-518 1 c-13 -13 -18 -14 -28 -4 -10 10 -10 15 1 21 8 5 21 7 28 4 12 -5 12
-8 -1 -21z m74 7 c0 -4 -7 -6 -15 -3 -8 4 -15 10 -15 15 0 4 7 6 15 3 8 -4 15
-10 15 -15z m230 16 c0 -2 -10 -9 -22 -15 -22 -11 -22 -10 -4 4 21 17 26 19
26 11z m92 -2 c-6 -2 -10 -9 -7 -14 4 -5 -1 -6 -10 -2 -13 5 -14 7 -3 14 7 5
18 8 23 8 6 0 4 -3 -3 -6z m396 -5 c7 -10 -7 -31 -53 -80 -62 -67 -62 -67 -81
-47 -18 20 -18 21 43 80 64 62 74 67 91 47z m-1183 -42 c34 -35 40 -46 30 -59
-13 -18 -40 -17 -58 3 -10 12 -9 12 6 1 30 -24 18 4 -18 39 -26 26 -32 37 -24
47 16 19 18 18 64 -31z m302 6 c-17 -17 -31 -23 -43 -18 -16 6 -15 10 11 30
40 32 66 22 32 -12z m400 11 c-9 -9 -20 -14 -24 -10 -3 4 2 14 13 21 25 19 33
10 11 -11z m193 -48 c0 -1 -8 -9 -17 -16 -9 -8 -14 -9 -10 -3 3 6 -7 24 -23
39 -44 42 -37 52 10 15 22 -17 40 -33 40 -35z m-464 44 c10 -17 -23 -46 -38
-31 -8 8 -8 15 2 27 15 18 26 19 36 4z m89 -1 c5 4 5 2 2 -4 -4 -7 0 -17 8
-24 24 -20 17 -32 -8 -15 -13 8 -27 12 -31 8 -4 -5 -6 -1 -4 7 2 8 -2 14 -9
13 -7 -2 -10 4 -7 12 4 11 11 12 24 5 9 -5 21 -6 25 -2z m229 3 c8 -12 -31
-44 -44 -36 -8 5 -6 13 6 26 19 21 30 24 38 10z m441 -21 c-33 -34 -23 -41 11
-9 l23 21 40 -33 c32 -27 37 -37 28 -48 -14 -16 -19 -73 -6 -65 5 3 9 11 9 18
0 6 5 17 12 24 9 9 16 8 29 -4 15 -13 15 -19 3 -42 -52 -105 -23 -236 66 -297
23 -16 72 -39 109 -52 81 -28 62 -30 -28 -3 -74 22 -175 83 -215 130 -25 30
-31 48 -27 79 2 7 -2 11 -7 7 -5 -3 -9 1 -9 9 0 8 3 12 7 10 7 -5 33 86 36
128 1 15 0 27 -1 27 -8 0 -56 -112 -51 -117 3 -3 10 6 15 21 6 14 13 26 15 26
8 0 -6 -33 -21 -51 -8 -9 -15 -27 -16 -39 l-1 -22 -16 23 c-8 13 -35 47 -59
77 -43 53 -43 53 -24 75 27 31 55 77 46 77 -4 0 6 14 22 30 16 17 31 30 34 30
2 0 -8 -13 -24 -30z m-2489 -12 l29 -33 -32 29 c-18 17 -33 31 -33 33 0 8 8 1
36 -29z m1481 25 c-4 -3 -1 -13 6 -22 11 -14 10 -14 -5 -2 -16 12 -16 31 -1
31 4 0 3 -3 0 -7z m168 -3 c10 -16 -48 -60 -62 -48 -9 7 -5 16 15 34 30 26 38
29 47 14z m-1410 -50 c27 -27 47 -50 44 -50 -3 0 -27 23 -54 50 -27 28 -47 50
-44 50 3 0 27 -22 54 -50z m1195 46 c0 -3 -4 -8 -10 -11 -5 -3 -10 -1 -10 4 0
6 5 11 10 11 6 0 10 -2 10 -4z m530 -6 c0 -5 -4 -10 -10 -10 -5 0 -10 5 -10
10 0 6 5 10 10 10 6 0 10 -4 10 -10z m-694 -87 c9 -12 13 -27 9 -33 -6 -10
-85 101 -85 118 1 8 51 -49 76 -85z m544 27 c0 -4 -7 -13 -15 -20 -8 -7 -15
-17 -15 -23 0 -6 11 0 25 13 29 27 33 16 6 -19 l-18 -23 -41 48 c-38 45 -40
50 -25 66 15 16 17 16 49 -9 19 -14 34 -29 34 -33z m90 45 c-7 -9 -15 -13 -17
-11 -7 7 7 26 19 26 6 0 6 -6 -2 -15z m214 -25 c5 0 2 8 -5 18 -13 15 -12 16
4 3 9 -8 15 -16 12 -19 -3 -3 0 -11 6 -19 9 -10 7 -18 -6 -33 -18 -20 -19 -20
-57 17 -35 35 -37 38 -21 55 16 18 17 18 38 -2 12 -11 25 -20 29 -20z m125 24
c-12 -15 -11 -16 11 -9 24 7 24 6 8 -10 -15 -16 -18 -16 -32 -3 -11 11 -12 18
-3 27 17 17 31 13 16 -5z m-778 -10 c12 -14 11 -16 -5 -13 -11 2 -21 10 -24
17 -5 17 13 15 29 -4z m214 6 c6 -10 -34 -68 -48 -69 -20 -2 -18 32 3 55 26
26 35 29 45 14z m248 -15 c-22 -17 -30 -11 -13 10 7 8 17 12 22 9 5 -3 1 -12
-9 -19z m71 -7 c-3 -5 -12 -4 -20 3 -7 6 -11 15 -8 21 3 5 12 4 20 -3 7 -6 11
-15 8 -21z m980 -5 c-1 -21 3 -46 8 -56 5 -10 7 -21 5 -24 -3 -3 -14 12 -25
34 -18 34 -18 40 -5 61 9 12 16 22 17 22 2 0 2 -17 0 -37z m-1743 -48 l23 -44
-50 -57 c-28 -32 -57 -60 -65 -62 -11 -4 -12 -2 -3 9 13 16 14 89 2 89 -5 0
-7 -16 -5 -35 9 -80 -76 -140 -213 -150 l-75 -5 84 16 c132 25 185 77 176 173
-5 53 10 80 21 36 3 -13 10 -23 14 -20 5 3 3 18 -2 33 -9 24 -8 33 12 60 22
29 25 31 41 16 9 -8 27 -35 40 -59z m154 56 c-3 -6 -11 -11 -17 -11 -6 0 -6 6
2 15 14 17 26 13 15 -4z m46 -8 c13 -16 12 -17 -3 -4 -17 13 -22 21 -14 21 2
0 10 -8 17 -17z m89 -4 c0 -6 -4 -7 -10 -4 -5 3 -10 11 -10 16 0 6 5 7 10 4 6
-3 10 -11 10 -16z m447 -5 c3 -8 1 -20 -4 -25 -12 -12 -48 14 -39 29 10 17 36
15 43 -4z m313 1 c-7 -8 -17 -15 -22 -15 -6 0 -5 7 2 15 7 8 17 15 22 15 6 0
5 -7 -2 -15z m-936 -26 c-21 -24 -29 -18 -14 10 6 12 16 19 21 15 6 -4 4 -13
-7 -25z m71 21 c11 -17 -5 -32 -21 -19 -7 6 -11 15 -8 20 7 12 21 11 29 -1z
m80 -20 c-5 -8 -11 -8 -17 -2 -6 6 -7 16 -3 22 5 8 11 8 17 2 6 -6 7 -16 3
-22z m78 13 c-3 -7 -6 -13 -8 -13 -2 0 -5 6 -8 13 -3 8 1 14 8 14 7 0 11 -6 8
-14z m156 -24 c23 -41 23 -42 4 -67 -29 -39 -38 -37 -67 14 l-26 47 22 24 c30
32 39 29 67 -18z m334 -3 c28 -35 34 -46 24 -55 -10 -8 -22 1 -51 34 -33 40
-40 65 -18 65 4 0 24 -20 45 -44z m162 34 c3 -5 1 -10 -4 -10 -6 0 -11 5 -11
10 0 6 2 10 4 10 3 0 8 -4 11 -10z m205 5 c0 -2 -13 -19 -29 -37 -15 -18 -31
-43 -35 -55 -7 -22 -26 -32 -26 -14 0 8 80 111 87 111 2 0 3 -2 3 -5z m-880
-33 c0 -15 -2 -15 -10 -2 -13 20 -13 33 0 25 6 -3 10 -14 10 -23z m340 22 c0
-3 -7 -12 -15 -20 -16 -17 -18 -14 -9 10 6 15 24 23 24 10z m450 -65 l-13 -23
-18 23 c-15 18 -16 26 -6 42 11 18 12 18 30 0 16 -16 17 -22 7 -42z m-951 38
c8 -11 5 -19 -13 -36 l-24 -23 -7 22 c-6 20 9 50 25 50 4 0 13 -6 19 -13z m79
-12 c-3 -3 -9 2 -12 12 -6 14 -5 15 5 6 7 -7 10 -15 7 -18z m51 -29 c-11 -24
-13 -24 -25 -8 -19 25 -17 41 3 17 15 -19 15 -19 9 6 -7 30 4 47 16 25 5 -8 3
-26 -3 -40z m404 11 c-3 -4 -10 -3 -17 2 -7 6 -16 7 -21 3 -4 -4 -2 3 4 16 12
22 13 23 26 5 7 -10 11 -21 8 -26z m137 -38 c6 -10 4 -24 -6 -38 -16 -22 -16
-21 -49 34 -44 72 -37 100 12 53 19 -18 39 -40 43 -49z m81 38 c-14 -15 -21
-17 -21 -8 0 21 33 56 38 41 3 -7 -5 -22 -17 -33z m109 39 c0 -3 -4 -8 -10
-11 -5 -3 -10 -1 -10 4 0 6 5 11 10 11 6 0 10 -2 10 -4z m-649 -23 c13 -16 12
-17 -3 -4 -17 13 -22 21 -14 21 2 0 10 -8 17 -17z m237 -30 c-11 -12 -25 -20
-29 -17 -5 3 -9 -2 -9 -11 0 -9 -5 -13 -10 -10 -6 4 2 23 21 47 23 29 34 36
40 26 5 -8 0 -21 -13 -35z m2532 43 c0 -2 -8 -10 -17 -17 -16 -13 -17 -12 -4
4 13 16 21 21 21 13z m-2880 -79 c0 -8 -6 -20 -13 -26 -11 -8 -16 -5 -25 14
-7 15 -8 27 -2 30 6 4 10 11 10 17 0 7 -5 7 -14 -1 -17 -14 -30 11 -14 27 12
12 58 -36 58 -61z m100 41 c0 -6 -7 -5 -15 2 -8 7 -15 17 -15 22 0 6 7 5 15
-2 8 -7 15 -17 15 -22z m594 13 c3 -4 -6 -19 -19 -31 -26 -25 -33 -13 -13 20
14 22 24 25 32 11z m-620 -55 c-5 -13 -9 -14 -20 -5 -15 12 -19 41 -7 52 10
11 34 -30 27 -47z m100 10 c14 -25 26 -48 26 -53 -1 -4 -8 5 -16 20 -21 39
-30 27 -9 -12 8 -17 12 -31 7 -31 -10 0 -65 100 -58 107 2 3 10 -5 16 -17 6
-12 14 -19 17 -17 2 3 0 15 -7 26 -21 40 -2 21 24 -23z m332 -9 c9 -16 11 -26
5 -23 -6 4 -11 3 -11 -3 0 -5 4 -12 9 -15 5 -3 12 -18 16 -33 3 -15 11 -31 17
-34 5 -3 8 -17 6 -30 -4 -23 -5 -23 -12 -4 -12 32 -25 59 -38 80 -41 63 -57
95 -48 95 5 0 17 -11 26 -25 9 -14 19 -23 21 -21 3 3 -5 20 -18 38 -16 23 -18
29 -5 19 9 -8 24 -28 32 -44z m307 29 c21 -32 9 -42 -14 -12 -21 27 -24 36
-10 36 5 0 16 -11 24 -24z m-963 -7 c0 -6 -4 -7 -10 -4 -5 3 -10 11 -10 16 0
6 5 7 10 4 6 -3 10 -11 10 -16z m67 -34 c-18 -38 -33 -45 -39 -17 -6 25 31 77
45 63 8 -8 6 -21 -6 -46z m480 43 c7 -9 3 -25 -12 -51 l-22 -38 -13 31 c-11
27 -10 33 5 50 21 23 29 25 42 8z m307 -29 c-11 -23 -19 -28 -27 -20 -7 7 -5
16 8 31 27 30 38 24 19 -11z m-947 -28 c-40 -48 -127 -121 -144 -121 -9 0 6
17 34 40 28 22 67 60 89 86 21 26 40 42 42 36 2 -7 -7 -25 -21 -41z m388 -14
c16 -29 24 -55 20 -65 -5 -13 -10 -9 -19 18 -8 19 -21 53 -31 75 -21 51 -5 35
30 -28z m466 30 c-8 -8 -11 -7 -11 4 0 20 13 34 18 19 3 -7 -1 -17 -7 -23z
m185 9 c11 -17 13 -30 6 -42 -8 -14 -11 -14 -17 -3 -5 8 -16 25 -24 39 -10 15
-11 21 -3 17 6 -5 12 -4 12 2 0 17 8 13 26 -13z m192 -89 c14 -21 26 -48 27
-60 1 -12 7 -35 14 -52 23 -58 21 -60 -14 -20 -43 49 -145 198 -145 211 0 6 6
16 13 23 10 10 19 5 46 -26 18 -21 45 -55 59 -76z m-2253 83 c10 -11 16 -20
13 -20 -3 0 -13 9 -23 20 -10 11 -16 20 -13 20 3 0 13 -9 23 -20z m1075 -34
c-7 -7 -10 1 -9 25 0 32 1 33 10 10 6 -16 6 -28 -1 -35z m30 33 c0 -6 -4 -7
-10 -4 -5 3 -10 11 -10 16 0 6 5 7 10 4 6 -3 10 -11 10 -16z m412 -24 c-13
-16 -23 -22 -27 -15 -4 6 3 23 16 36 29 31 38 13 11 -21z m222 -14 c20 -32 36
-67 35 -78 0 -14 -2 -14 -6 -3 -3 8 -21 40 -39 71 -32 53 -39 69 -30 69 2 0
20 -27 40 -59z m-430 33 c9 -25 7 -27 -10 -13 -15 12 -16 11 -10 -9 8 -23 -25
-78 -38 -65 -13 13 -5 46 17 73 26 34 33 36 41 14z m599 -21 c-6 -15 -23 -18
-23 -4 0 5 3 17 6 26 5 12 9 14 14 4 5 -7 6 -18 3 -26z m-687 2 c5 -19 -3 -35
-31 -70 -21 -25 -38 -45 -39 -45 0 0 -1 15 0 33 1 31 41 107 56 107 4 0 10
-11 14 -25z m312 -41 c-17 -29 -24 -34 -26 -21 -2 9 7 34 20 55 31 50 37 18 6
-34z m82 9 c0 -12 -4 -25 -10 -28 -5 -3 -10 2 -10 12 0 11 -5 24 -11 30 -7 7
-9 19 -5 29 6 16 8 16 21 -2 8 -10 15 -29 15 -41z m434 -56 c-5 -23 -13 -41
-19 -41 -5 1 -19 20 -31 42 -21 39 -21 43 -6 76 l16 35 24 -36 c21 -30 23 -41
16 -76z m66 103 c0 -5 -4 -10 -10 -10 -5 0 -10 5 -10 10 0 6 5 10 10 10 6 0
10 -4 10 -10z m-262 -39 c-14 -22 -28 -28 -28 -11 0 19 24 50 33 41 5 -5 3
-18 -5 -30z m1752 35 c0 -2 -8 -10 -17 -17 -16 -13 -17 -12 -4 4 13 16 21 21
21 13z m-3559 -23 c13 -16 12 -17 -3 -4 -10 7 -18 15 -18 17 0 8 8 3 21 -13z
m1092 -3 c3 -11 1 -18 -4 -14 -5 3 -9 12 -9 20 0 20 7 17 13 -6z m2677 17 c0
-2 -10 -12 -22 -23 l-23 -19 19 23 c18 21 26 27 26 19z m-3369 -25 c-7 -2 -18
1 -23 6 -8 8 -4 9 13 5 13 -4 18 -8 10 -11z m1489 9 c0 -17 -12 -41 -21 -41
-10 0 -12 33 -2 43 9 10 23 9 23 -2z m236 -48 c21 -32 41 -62 43 -68 14 -35
133 -151 194 -189 93 -57 137 -68 277 -69 92 0 107 -2 75 -10 -51 -11 -193 -1
-265 20 -84 24 -129 50 -198 117 -57 54 -182 225 -182 247 0 22 20 4 56 -48z
m1821 9 c-21 -21 -34 -42 -30 -46 5 -4 1 -6 -7 -4 -9 2 -14 -3 -12 -12 2 -8 0
-12 -4 -7 -4 4 -16 0 -26 -10 -10 -9 -18 -13 -18 -9 0 7 122 125 130 126 2 0
-13 -17 -33 -38z m-3484 21 c-7 -2 -21 -2 -30 0 -10 3 -4 5 12 5 17 0 24 -2
18 -5z m600 -10 c-7 -3 -13 -15 -13 -27 0 -13 -8 -31 -19 -40 -18 -16 -18 -16
-13 11 5 30 42 77 51 67 3 -4 0 -9 -6 -11z m377 1 c0 -8 -4 -12 -10 -9 -5 3
-10 10 -10 16 0 5 5 9 10 9 6 0 10 -7 10 -16z m98 -25 c2 -19 -3 -47 -12 -64
-8 -16 -20 -43 -26 -58 -5 -16 -14 -26 -19 -23 -5 4 -12 0 -14 -6 -3 -7 -6 -2
-6 13 -1 14 -7 31 -13 38 -11 11 -10 12 1 6 11 -6 13 -4 8 8 -3 9 -2 19 3 22
6 4 10 -5 10 -19 0 -14 5 -26 11 -26 6 0 8 8 5 18 -2 9 -7 27 -11 40 -7 26 30
95 49 89 6 -2 13 -19 14 -38z m302 29 c-1 -7 -7 -24 -15 -38 -11 -21 -15 -22
-20 -8 -7 18 10 58 25 58 6 0 10 -6 10 -12z m381 -212 c34 -37 81 -78 103 -91
65 -38 165 -64 278 -74 l103 -8 -86 -2 c-81 -1 -187 22 -294 64 -18 7 -18 6
-5 -7 8 -8 44 -23 80 -33 36 -9 76 -21 90 -25 l25 -8 -25 -1 c-74 -2 -179 46
-261 118 -63 55 -183 223 -176 245 2 6 12 -6 22 -27 16 -34 35 -57 35 -42 0 3
-11 26 -25 51 -41 73 -28 64 24 -17 27 -42 77 -106 112 -143z m-330 177 c-12
-20 -14 -14 -5 12 4 9 9 14 11 11 3 -2 0 -13 -6 -23z m-1785 -2 c-3 -4 13 -18
34 -30 22 -12 40 -25 40 -27 0 -3 -22 7 -50 23 -27 15 -45 30 -40 31 6 2 7 9
4 14 -4 7 -2 8 5 4 6 -4 9 -11 7 -15z m1087 5 c6 -16 -25 -80 -57 -115 -24
-27 -121 -101 -133 -101 -4 0 7 15 24 33 17 17 39 48 48 67 20 38 94 130 105
130 5 0 10 -6 13 -14z m227 -2 c0 -8 -5 -12 -10 -9 -6 4 -8 11 -5 16 9 14 15
11 15 -7z m-323 -9 c0 -8 -4 -15 -9 -15 -10 0 -11 14 -1 23 9 10 10 9 10 -8z
m762 -7 c0 -13 -4 -31 -8 -41 -6 -17 -9 -17 -19 -4 -10 11 -10 21 -1 41 15 32
29 34 28 4z m-405 -3 c3 -8 1 -15 -4 -15 -6 0 -10 7 -10 15 0 8 2 15 4 15 2 0
6 -7 10 -15z m573 -36 c-6 -56 -13 -71 -23 -45 -7 17 12 96 22 96 3 0 3 -23 1
-51z m-636 0 l-10 -24 0 26 c-1 14 2 29 6 33 12 12 14 -9 4 -35z m566 -9 c14
-24 26 -58 28 -75 1 -18 6 -47 9 -66 5 -23 -7 -7 -39 54 -43 85 -58 143 -34
135 6 -2 23 -24 36 -48z m-892 2 c-3 -16 -17 -40 -31 -52 -31 -30 -31 -21 1
26 14 20 25 44 25 52 0 8 3 13 6 9 3 -3 3 -19 -1 -35z m366 -9 c-9 -15 -10
-12 -10 17 0 29 1 32 10 18 7 -12 7 -24 0 -35z m444 8 c-4 -17 -10 -31 -15
-31 -4 0 -3 16 3 35 13 42 22 39 12 -4z m-788 7 c-3 -8 -6 -5 -6 6 -1 11 2 17
5 13 3 -3 4 -12 1 -19z m730 -73 c7 -5 15 -30 16 -55 3 -32 8 -44 18 -42 11 3
11 1 2 -9 -7 -7 -9 -17 -4 -23 5 -6 12 -31 15 -56 5 -33 4 -41 -3 -30 -6 8
-11 30 -11 48 0 18 -4 31 -9 27 -6 -3 -8 4 -6 15 2 11 0 20 -4 20 -5 0 -14 21
-21 48 -7 26 -18 61 -26 78 -7 17 -10 41 -6 55 5 21 7 18 16 -21 5 -25 16 -49
23 -55z m1593 91 c0 -2 -8 -10 -17 -17 -16 -13 -17 -12 -4 4 13 16 21 21 21
13z m-2867 -23 c-7 -2 -19 -2 -25 0 -7 3 -2 5 12 5 14 0 19 -2 13 -5z m487
-14 c-24 -44 -90 -97 -146 -119 -75 -29 -204 -37 -294 -18 l-65 14 140 -1
c171 0 214 12 306 90 35 30 65 54 67 55 1 0 -2 -9 -8 -21z m728 -4 c-3 -3 -9
2 -12 12 -6 14 -5 15 5 6 7 -7 10 -15 7 -18z m511 -20 c0 -5 -4 -3 -9 5 -5 8
-9 22 -9 30 0 16 17 -16 18 -35z m-859 7 c0 -16 -6 -37 -14 -47 -13 -18 -14
-18 -11 10 3 31 14 65 21 65 2 0 4 -13 4 -28z m-1163 4 c0 -8 -6 -12 -15 -9
-11 5 -11 7 0 14 7 5 13 9 14 9 0 0 1 -6 1 -14z m1593 -26 c0 -13 -1 -13 -10
0 -5 8 -10 22 -10 30 0 13 1 13 10 0 5 -8 10 -22 10 -30z m1990 25 c-6 -8 -8
-20 -4 -26 5 -8 3 -9 -5 -5 -15 10 -53 -23 -44 -37 3 -5 2 -7 -4 -4 -5 3 -21
-5 -36 -19 -15 -14 -57 -48 -94 -76 -38 -28 -68 -54 -68 -59 0 -4 -4 -11 -9
-16 -5 -5 -6 -2 -1 6 5 9 3 12 -6 9 -8 -3 -13 -11 -12 -17 3 -11 -60 -61 -109
-87 -45 -24 -32 -9 23 25 28 17 49 34 46 37 -9 10 -118 -67 -111 -78 4 -7 3
-8 -4 -4 -7 4 -44 -13 -84 -37 -40 -24 -100 -56 -133 -71 -33 -16 -91 -43
-130 -61 -38 -18 -89 -39 -113 -46 -30 -9 -39 -15 -30 -22 9 -6 8 -7 -5 -3
-20 6 -139 -23 -133 -33 2 -3 -8 -7 -22 -7 -63 -3 -240 -39 -235 -48 3 -5 1
-6 -5 -3 -5 4 -57 9 -115 11 -153 6 -290 48 -365 111 -38 32 -53 32 -22 0 13
-14 21 -25 17 -25 -11 0 -47 43 -42 50 5 9 -26 39 -40 39 -5 0 -16 10 -24 23
l-13 23 21 -24 c11 -13 21 -18 21 -12 0 15 -41 71 -49 67 -3 -2 -6 14 -6 36 0
31 4 42 17 44 11 1 15 -3 11 -13 -5 -12 -7 -12 -14 -1 -7 10 -9 10 -9 -3 0 -9
12 -34 26 -55 82 -122 139 -165 279 -210 71 -23 96 -26 225 -26 80 0 156 3
170 6 13 3 42 8 65 11 22 4 54 10 70 15 308 91 485 172 732 336 135 90 317
229 357 273 21 24 35 29 16 6z m-3123 -1 c-3 -3 -12 -4 -19 -1 -8 3 -5 6 6 6
11 1 17 -2 13 -5z m2633 1 c0 -2 -10 -9 -22 -15 -22 -11 -22 -10 -4 4 21 17
26 19 26 11z m-1561 -55 c0 -10 -3 -8 -9 5 -12 27 -12 43 0 25 5 -8 9 -22 9
-30z m-1386 -4 c51 -19 101 -36 112 -39 19 -4 18 -5 -2 -6 -21 -1 -168 49
-202 69 -31 18 0 10 92 -24z m658 15 c-14 -25 -79 -81 -94 -81 -7 0 2 10 18
22 17 13 41 35 55 50 30 32 34 34 21 9z m-991 -48 c0 -7 -61 31 -73 46 -7 8 7
2 31 -14 23 -15 42 -30 42 -32z m3186 30 c-3 -20 -22 -28 -31 -14 -4 7 0 8 10
5 9 -4 15 -3 14 2 -2 13 0 24 5 24 2 0 3 -8 2 -17z m-3415 -10 c13 -16 12 -17
-3 -4 -10 7 -18 15 -18 17 0 8 8 3 21 -13z m464 7 c3 -6 -1 -7 -9 -4 -18 7
-21 14 -7 14 6 0 13 -4 16 -10z m2055 -60 c20 -18 18 -18 -9 2 -19 13 -41 35
-49 49 -13 22 -13 22 9 -3 13 -14 35 -36 49 -48z m-1843 44 c-3 -3 -12 -4 -19
-1 -8 3 -5 6 6 6 11 1 17 -2 13 -5z m960 -16 c-3 -8 -6 -5 -6 6 -1 11 2 17 5
13 3 -3 4 -12 1 -19z m-910 6 c-3 -3 -12 -4 -19 -1 -8 3 -5 6 6 6 11 1 17 -2
13 -5z m2639 -9 c-11 -8 -25 -15 -30 -15 -6 1 0 7 14 15 32 19 40 18 16 0z
m-2553 -2 c-7 -2 -19 -2 -25 0 -7 3 -2 5 12 5 14 0 19 -2 13 -5z m105 0 c-10
-2 -26 -2 -35 0 -10 3 -2 5 17 5 19 0 27 -2 18 -5z m182 -13 c-14 -11 -32 -20
-40 -20 -8 0 -26 -3 -40 -5 -14 -3 2 5 35 19 75 30 75 30 45 6z m335 -31 c-19
-36 -83 -109 -97 -109 -5 0 -24 -11 -41 -24 -34 -24 -123 -53 -134 -42 -3 3 1
6 10 6 42 0 161 76 215 138 31 34 57 62 59 62 2 0 -4 -14 -12 -31z m1632 25
c-3 -3 -12 -4 -19 -1 -8 3 -5 6 6 6 11 1 17 -2 13 -5z m-2344 -19 c-1 -5 -7
-11 -15 -13 -10 -3 -9 -1 1 6 11 8 9 11 -10 15 l-24 5 25 -1 c14 -1 24 -6 23
-12z m1258 8 c3 -33 8 -54 19 -93 12 -46 18 -68 19 -83 1 -5 4 -6 9 -4 4 3 7
-11 8 -31 l1 -37 -18 40 c-10 22 -19 50 -19 62 0 12 -4 24 -9 27 -4 3 -11 22
-14 43 -3 21 -9 48 -13 61 -4 13 -2 22 5 22 6 0 11 -3 12 -7z m1036 1 c-3 -3
-12 -4 -19 -1 -8 3 -5 6 6 6 11 1 17 -2 13 -5z m273 -4 c-8 -5 -19 -10 -25
-10 -5 0 -3 5 5 10 8 5 20 10 25 10 6 0 3 -5 -5 -10z m-2155 -9 c-13 -12 -85
-34 -91 -28 -3 3 14 11 38 20 53 18 65 20 53 8z m1842 3 c-3 -3 -12 -4 -19 -1
-8 3 -5 6 6 6 11 1 17 -2 13 -5z m-2044 -11 c-29 -2 -77 -2 -105 0 -29 2 -6 3
52 3 58 0 81 -1 53 -3z m1940 0 c-13 -2 -33 -2 -45 0 -13 2 -3 4 22 4 25 0 35
-2 23 -4z m-2480 -26 c20 -10 37 -19 37 -22 0 -7 -50 14 -73 31 -24 17 -21 17
36 -9z m622 13 c-11 -5 -65 -8 -120 -7 l-100 1 100 6 c55 3 109 7 120 7 l20 2
-20 -9z m1084 -67 c8 -21 22 -49 32 -62 11 -13 19 -29 19 -36 0 -24 135 -133
203 -164 93 -43 183 -55 362 -48 155 6 273 30 380 76 11 5 49 21 85 36 95 40
317 152 373 187 26 17 50 28 54 25 10 -11 -212 -139 -322 -185 -245 -105 -396
-147 -586 -164 -150 -14 -259 3 -370 56 -80 38 -163 112 -198 176 -29 52 -57
112 -66 140 -13 42 18 8 34 -37z m1054 50 c3 -5 -11 -9 -32 -10 -27 -1 -31 1
-16 7 26 11 43 12 48 3z m-1106 -25 c-3 -8 -6 -5 -6 6 -1 11 2 17 5 13 3 -3 4
-12 1 -19z m1030 6 c-3 -3 -12 -4 -19 -1 -8 3 -5 6 6 6 11 1 17 -2 13 -5z
m-2680 -40 c41 -20 72 -38 70 -40 -2 -2 -39 14 -83 35 -43 22 -75 40 -70 40 5
1 42 -15 83 -35z m1078 9 c-78 -123 -236 -194 -429 -192 -56 0 -119 4 -141 8
-29 6 0 9 104 10 211 2 311 35 417 140 68 68 72 71 49 34z m1510 17 c-3 -5
-16 -10 -28 -9 -20 1 -20 2 3 9 14 4 26 8 28 9 2 1 0 -3 -3 -9z m132 4 c-3 -3
-12 -4 -19 -1 -8 3 -5 6 6 6 11 1 17 -2 13 -5z m-290 -10 c-3 -3 -12 -4 -19
-1 -8 3 -5 6 6 6 11 1 17 -2 13 -5z m220 -12 c8 -5 -3 -8 -25 -9 -20 0 -62 -4
-92 -8 -30 -4 -53 -5 -50 -2 3 3 27 8 55 12 27 3 51 8 54 11 7 7 45 4 58 -4z
m358 -1 c-17 -15 -129 -71 -143 -71 -7 0 -10 -4 -7 -10 4 -6 -1 -7 -11 -3 -20
7 -12 13 91 60 77 35 84 37 70 24z m-1336 -41 c6 -19 7 -30 2 -25 -5 6 -13 24
-17 40 -9 39 0 30 15 -15z m958 24 c-3 -3 -12 -4 -19 -1 -8 3 -5 6 6 6 11 1
17 -2 13 -5z m-114 -21 c-7 -2 -19 -2 -25 0 -7 3 -2 5 12 5 14 0 19 -2 13 -5z
m-90 -10 c-24 -2 -62 -2 -85 0 -24 2 -5 4 42 4 47 0 66 -2 43 -4z m-1283 -26
c0 -2 -15 -16 -32 -33 l-33 -29 29 33 c28 30 36 37 36 29z m590 -51 c-1 -6
-10 0 -20 13 -11 13 -20 28 -20 35 1 6 10 0 20 -13 11 -13 20 -28 20 -35z
m-1514 23 c32 -11 84 -27 114 -34 30 -7 73 -18 95 -24 l40 -10 -50 5 c-61 6
-182 39 -238 64 -57 25 -33 25 39 -1z m494 -3 c8 -2 -48 -4 -125 -4 -77 0
-153 3 -170 7 -16 4 40 5 125 3 85 -2 162 -5 170 -6z m2126 7 c-4 -4 -34 -17
-68 -29 -33 -12 -56 -18 -51 -13 5 5 33 18 63 28 65 23 65 23 56 14z m249 -23
c-3 -5 -12 -10 -18 -10 -7 0 -6 4 3 10 19 12 23 12 15 0z m-2462 -7 c-13 -2
-33 -2 -45 0 -13 2 -3 4 22 4 25 0 35 -2 23 -4z m1101 -36 c33 -80 200 -187
321 -206 64 -10 290 -8 365 4 25 4 84 17 133 29 48 12 87 21 87 19 0 -13 -194
-58 -315 -73 -90 -12 -241 -4 -315 15 -128 33 -259 129 -292 214 -19 48 -4 45
16 -2z m1326 28 c0 -2 -10 -9 -22 -15 -22 -11 -22 -10 -4 4 21 17 26 19 26 11z
m-463 -51 c-3 -3 -12 -4 -19 -1 -8 3 -5 6 6 6 11 1 17 -2 13 -5z m-1567 -19
c-14 -17 -118 -57 -134 -52 -6 2 12 11 39 21 28 9 61 23 75 31 32 18 35 18 20
0z m1179 -11 c8 -7 -64 -2 -89 6 -16 6 -6 7 30 3 30 -3 57 -7 59 -9z m198 0
c-3 -3 -12 -4 -19 -1 -8 3 -5 6 6 6 11 1 17 -2 13 -5z m490 -1 c-10 -10 -140
-63 -144 -59 -3 3 134 65 146 66 2 0 1 -3 -2 -7z m-2012 -13 c-11 -5 -27 -9
-35 -9 -9 0 -8 4 5 9 11 5 27 9 35 9 9 0 8 -4 -5 -9z m1438 3 c-18 -2 -48 -2
-65 0 -18 2 -4 4 32 4 36 0 50 -2 33 -4z m-1630 -30 c-7 -2 -19 -2 -25 0 -7 3
-2 5 12 5 14 0 19 -2 13 -5z m142 -19 c-27 -8 -86 -13 -130 -12 -68 2 -71 2
-20 5 88 4 146 13 141 22 -3 4 9 5 27 3 31 -5 31 -6 -18 -18z m-212 9 c-7 -2
-19 -2 -25 0 -7 3 -2 5 12 5 14 0 19 -2 13 -5z m135 0 c-10 -2 -26 -2 -35 0
-10 3 -2 5 17 5 19 0 27 -2 18 -5z m1208 -152 c39 -12 89 -22 110 -23 l39 -1
-37 -4 c-59 -7 -243 55 -264 88 -4 6 13 0 37 -14 24 -14 76 -35 115 -46z m684
49 c-8 -5 -19 -10 -25 -10 -5 0 -3 5 5 10 8 5 20 10 25 10 6 0 3 -5 -5 -10z"/>
<path d="M760 3792 c0 -5 7 -15 15 -22 8 -7 15 -8 15 -2 0 5 -7 15 -15 22 -8
7 -15 8 -15 2z"/>
<path d="M3127 2903 c-16 -87 -26 -112 -75 -188 -33 -51 -118 -121 -184 -152
-28 -13 -81 -28 -117 -35 -98 -16 -253 -21 -294 -10 -21 6 -37 7 -37 2 0 -23
194 -26 320 -5 170 30 286 111 359 252 12 23 51 142 51 156 0 20 -18 3 -23
-20z"/>
<path d="M5807 3723 c-4 -3 -7 -11 -7 -17 0 -6 5 -5 12 2 6 6 9 14 7 17 -3 3
-9 2 -12 -2z"/>
<path d="M5739 3632 c-13 -15 -20 -22 -15 -15 5 7 6 16 4 19 -3 3 -23 -19 -44
-48 -21 -29 -44 -57 -51 -61 -17 -10 -17 -31 0 -21 6 4 4 -2 -7 -14 -10 -12
-22 -20 -26 -19 -11 3 -252 -235 -245 -241 3 -3 57 46 120 110 63 63 115 112
115 110 0 -3 -12 -18 -27 -34 -14 -15 -24 -30 -21 -34 5 -4 144 156 217 249
23 30 5 29 -20 -1z"/>
<path d="M5600 3489 c0 -5 5 -7 10 -4 6 3 10 8 10 11 0 2 -4 4 -10 4 -5 0 -10
-5 -10 -11z"/>
<path d="M5325 3190 c-17 -18 -37 -28 -46 -25 -9 3 -22 -1 -29 -10 -13 -15 -2
-21 16 -7 5 4 -11 -12 -36 -36 -25 -24 -36 -39 -25 -33 21 10 165 130 165 137
0 11 -18 0 -45 -26z"/>
<path d="M5110 3050 c-8 -5 -11 -12 -7 -16 4 -4 15 0 24 9 18 18 8 23 -17 7z"/>
<path d="M2999 3148 c-2 -9 -10 -47 -13 -68 -2 -14 -16 -54 -31 -89 -14 -35
-24 -66 -21 -68 3 -3 10 5 15 18 5 13 17 42 27 64 9 22 18 50 19 62 2 12 6 35
10 52 4 17 4 31 1 31 -3 0 -6 -1 -7 -2z"/>
<path d="M5742 3865 c-17 -37 -14 -45 4 -12 9 16 14 31 11 33 -2 2 -9 -7 -15
-21z"/>
<path d="M4895 3040 c-3 -5 -2 -10 4 -10 5 0 13 5 16 10 3 6 2 10 -4 10 -5 0
-13 -4 -16 -10z"/>
<path d="M840 4299 c0 -5 5 -7 10 -4 6 3 10 8 10 11 0 2 -4 4 -10 4 -5 0 -10
-5 -10 -11z"/>
<path d="M1010 3614 c0 -23 180 -216 270 -289 36 -30 81 -68 100 -85 52 -46
190 -143 196 -137 3 3 -27 28 -68 55 -40 28 -89 65 -108 82 -19 17 -64 55
-100 84 -66 54 -184 174 -252 256 -21 25 -38 40 -38 34z"/>
<path d="M5337 3572 c-15 -16 -27 -32 -27 -37 0 -5 14 6 31 23 18 18 30 35 27
37 -2 3 -17 -8 -31 -23z"/>
<path d="M934 4033 c4 -9 14 -46 23 -82 20 -82 49 -141 126 -256 79 -118 332
-373 437 -440 41 -27 91 -61 111 -76 43 -34 178 -102 314 -159 95 -39 137 -52
215 -65 19 -3 61 -11 93 -17 74 -14 215 -4 293 20 77 24 133 60 177 114 39 47
63 98 47 98 -6 0 -10 -6 -10 -14 0 -24 -78 -114 -123 -143 -159 -101 -431 -90
-708 28 -271 115 -435 227 -640 436 -196 199 -288 339 -325 496 -10 42 -22 77
-27 77 -5 0 -6 -7 -3 -17z"/>
<path d="M1260 3713 c0 -6 5 -15 10 -18 6 -4 9 -14 6 -23 -4 -15 24 -62 37
-62 2 0 4 10 3 23 0 12 -6 22 -13 22 -6 0 -15 4 -20 9 -5 5 -3 6 5 2 18 -11
14 5 -8 34 -11 14 -20 20 -20 13z"/>
<path d="M1324 3612 c1 -20 114 -152 129 -152 6 0 2 9 -9 21 -10 12 -17 22
-14 23 6 1 -93 124 -101 125 -4 1 -6 -7 -5 -17z"/>
<path d="M3580 3382 c6 -13 14 -21 18 -18 3 4 -2 14 -12 24 -18 16 -18 16 -6
-6z"/>
<path d="M3055 3170 c3 -5 8 -10 11 -10 2 0 4 5 4 10 0 6 -5 10 -11 10 -5 0
-7 -4 -4 -10z"/>
<path d="M3690 3217 c0 -36 179 -222 196 -204 3 2 -12 18 -33 33 -45 34 -123
117 -123 131 0 5 -9 18 -20 28 -11 10 -20 15 -20 12z"/>
<path d="M5095 2950 c-3 -5 -2 -10 4 -10 5 0 13 5 16 10 3 6 2 10 -4 10 -5 0
-13 -4 -16 -10z"/>
<path d="M6940 5490 c0 -5 4 -10 9 -10 6 0 41 -29 78 -65 l69 -64 23 -95 c16
-68 21 -112 17 -153 -3 -32 -8 -87 -12 -123 -14 -146 -169 -585 -277 -783
-155 -285 -305 -529 -396 -646 -36 -46 -85 -107 -107 -137 -119 -155 -302
-361 -484 -544 -228 -230 -415 -382 -704 -574 -268 -178 -384 -243 -608 -345
-179 -81 -553 -197 -693 -216 -27 -3 -77 -12 -110 -20 -33 -7 -86 -16 -118
-20 -31 -4 -60 -12 -64 -18 -4 -7 5 -8 28 -3 44 9 108 21 244 45 147 26 300
65 410 106 50 18 108 38 130 45 97 30 326 134 460 210 134 75 310 188 505 324
138 97 406 327 534 460 132 136 211 221 262 281 104 122 180 212 204 244 14
19 56 72 94 120 71 90 113 151 211 311 32 52 68 112 81 132 13 21 24 39 24 42
0 2 30 57 66 122 82 146 211 445 249 574 15 52 34 115 42 140 9 25 23 107 32
182 l17 138 -24 102 -23 103 -67 63 c-73 68 -102 89 -102 72z"/>
<path d="M3298 3038 c-5 -63 -2 -218 4 -218 4 0 6 42 4 93 -1 50 1 104 5 120
4 15 4 27 -2 27 -5 0 -10 -10 -11 -22z"/>
<path d="M3293 2755 c1 -30 4 -55 7 -55 4 0 6 25 6 55 0 30 -3 55 -7 55 -4 0
-6 -25 -6 -55z"/>
</g>
</svg>
